<svg xmlns="http://www.w3.org/2000/svg" width="94" height="94" viewBox="0 0 94 94">
    <g fill="none" fill-rule="evenodd" transform="translate(2 2)">
        <g fill="#FC0" fill-rule="nonzero">
            <path d="M63.002 46.242H52.395v-6.06a3.031 3.031 0 0 0-3.03-3.03h-9.09a3.031 3.031 0 0 0-3.031 3.03v6.06H26.638c-.838 0-1.515.678-1.515 1.516v18.181c0 .838.677 1.516 1.515 1.516h36.364c.837 0 1.515-.678 1.515-1.516V47.758c0-.838-.678-1.516-1.515-1.516zM34.214 62.91c0 .838-.678 1.515-1.516 1.515h-3.03a1.514 1.514 0 0 1-1.515-1.515v-3.03c0-.838.677-1.515 1.515-1.515h3.03c.838 0 1.516.677 1.516 1.515v3.03zm0-9.09c0 .837-.678 1.514-1.516 1.514h-3.03a1.514 1.514 0 0 1-1.515-1.515v-3.03c0-.838.677-1.515 1.515-1.515h3.03c.838 0 1.516.677 1.516 1.515v3.03zm9.09 9.09c0 .838-.677 1.515-1.515 1.515h-3.03a1.514 1.514 0 0 1-1.515-1.515v-3.03c0-.838.677-1.515 1.515-1.515h3.03c.838 0 1.516.677 1.516 1.515v3.03zm0-9.09c0 .837-.677 1.514-1.515 1.514h-3.03a1.514 1.514 0 0 1-1.515-1.515v-3.03c0-.838.677-1.515 1.515-1.515h3.03c.838 0 1.516.677 1.516 1.515v3.03zm9.091 9.09c0 .838-.677 1.515-1.515 1.515h-3.03a1.514 1.514 0 0 1-1.515-1.515v-3.03c0-.838.677-1.515 1.515-1.515h3.03c.838 0 1.515.677 1.515 1.515v3.03zm0-9.09c0 .837-.677 1.514-1.515 1.514h-3.03a1.514 1.514 0 0 1-1.515-1.515v-3.03c0-.838.677-1.515 1.515-1.515h3.03c.838 0 1.515.677 1.515 1.515v3.03zm9.091 9.09c0 .838-.677 1.515-1.515 1.515h-3.03a1.514 1.514 0 0 1-1.515-1.515v-3.03c0-.838.677-1.515 1.515-1.515h3.03c.838 0 1.515.677 1.515 1.515v3.03zm0-9.09c0 .837-.677 1.514-1.515 1.514h-3.03a1.514 1.514 0 0 1-1.515-1.515v-3.03c0-.838.677-1.515 1.515-1.515h3.03c.838 0 1.515.677 1.515 1.515v3.03zM42.302 29.752l2.518-1.325 2.518 1.325-.48-2.804 2.037-1.987-2.816-.41L44.819 22l-1.258 2.552-2.819.409 2.04 1.987zM53.376 34.036l2.518-1.324 2.52 1.324-.482-2.803 2.04-1.988-2.819-.409-1.26-2.551-1.258 2.551-2.817.41 2.04 1.987zM30.648 34.036l2.519-1.324 2.52 1.324-.482-2.803 2.039-1.988-2.818-.409-1.26-2.551-1.258 2.551-2.817.41 2.04 1.987zM69.062 36.645l-2.818-.409-1.26-2.551-1.258 2.551-2.817.41 2.04 1.987-.482 2.803 2.518-1.324 2.52 1.324-.482-2.803zM26.114 38.633l2.039-1.988-2.818-.409-1.26-2.551-1.258 2.551-2.817.41 2.04 1.987-.482 2.803 2.518-1.324 2.52 1.324z"/>
        </g>
        <circle cx="45" cy="45" r="45" stroke="#FC0" stroke-width="3"/>
    </g>
</svg>
