<?xml version="1.0" encoding="UTF-8"?>
<svg width="280px" height="52px" viewBox="0 0 280 52" version="1.1" xmlns="http://www.w3.org/2000/svg" xmlns:xlink="http://www.w3.org/1999/xlink">
    <!-- Generator: Sketch 46.2 (44496) - http://www.bohemiancoding.com/sketch -->
    <title>BG-logos_new</title>
    <desc>Created with Sketch.</desc>
    <defs></defs>
    <g id="Symbols" stroke="none" stroke-width="1" fill="none" fill-rule="evenodd">
        <g id="Партнеры" transform="translate(-820.000000, -395.000000)">
            <g id="BG-logos_new" transform="translate(820.000000, 395.000000)">
                <path d="M7.90888383,26.4692483 C7.90888383,26.7243736 7.90888383,26.9794989 7.90888383,27.2346241 C7.90888383,36.6742597 15.8177677,44.3917995 25.5763098,44.3917995 C31.38041,44.3917995 36.4829157,41.7129841 39.7357631,37.5034169 C39.4168565,37.3120729 38.4601367,36.8656036 38.1412301,36.6742597 C34.8883827,40.2460137 30.8701595,42.7334852 25.5763098,42.7334852 C16.0728929,42.6059226 8.4191344,35.4624146 7.90888383,26.4692483" id="Shape" fill="#2B9ED9" fill-rule="nonzero"></path>
                <path d="M25.7676538,45.7312073 L25.7676538,45.7312073 C14.7972665,45.7312073 5.93166287,36.8018223 5.93166287,25.8952164 C5.93166287,19.6446469 8.80182232,13.8405467 13.7129841,10.1412301 C16.3280182,12.8838269 19.8997722,18.0501139 19.8997722,25.8952164 L19.8359909,32.0182232 L25.9589977,31.7630979 L26.0865604,31.7630979 C27.1070615,31.7630979 35.2710706,31.9544419 42.0318907,37.2482916 C38.332574,42.4783599 32.3371298,45.7312073 25.7676538,45.7312073 L25.7676538,45.7312073 Z M26.0865604,25.8952164 C25.8952164,25.8952164 25.7676538,25.8952164 25.7676538,25.8952164 C25.7676538,10.7790433 15.0523918,3.38041002 14.2232346,2.87015945 C5.80410023,7.07972665 1.42108547e-14,15.8177677 1.42108547e-14,25.8952164 C1.42108547e-14,40.118451 11.5444191,51.5990888 25.7038724,51.5990888 C36.2277904,51.5990888 45.3485194,45.2209567 49.3029613,36.1640091 L49.23918,36.1002278 C40.6924829,26.2779043 28.2551253,25.8952164 26.0865604,25.8952164 Z" id="Shape" fill="#0A5CA0" fill-rule="nonzero"></path>
                <path d="M30.0410023,21.5580866 C30.0410023,21.5580866 30.1685649,21.5580866 30.3599089,21.5580866 C30.7425968,21.5580866 31.4441913,21.5580866 32.4646925,21.6218679 C36.1002278,20.9840547 40.8838269,21.1116173 46.1138952,22.9612756 C47.0068337,23.2801822 47.8997722,23.5990888 48.7927107,24.0455581 C47.070615,21.9407745 41.3302961,18.0501139 32.5922551,20.5375854 C32.1457859,20.6651481 31.6355353,20.856492 31.1252847,20.9840547 C31.1252847,20.9840547 35.0159453,18.1138952 40.8838269,18.0501139 C43.881549,18.0501139 47.3257403,18.7517084 51.1526196,20.9202733 C48.856492,9.05694761 38.4601367,0.0637813212 25.8952164,0.0637813212 C24.2369021,0.0637813212 22.642369,0.191343964 21.1116173,0.510250569 C24.428246,3.76309795 30.0410023,10.6514806 30.0410023,21.5580866" id="Shape" fill="#EC680F" fill-rule="nonzero"></path>
                <path d="M31.0615034,21.047836 C31.571754,20.856492 32.0182232,20.7289294 32.5284738,20.6013667 C41.2665148,18.0501139 47.0068337,22.0045558 48.7289294,24.1093394 C47.8359909,23.7266515 46.9430524,23.3439636 46.0501139,23.0250569 C40.8200456,21.1753986 36.0364465,21.047836 32.4009112,21.6856492 C36.3553531,22.0045558 44.5193622,23.4077449 51.2164009,29.4669704 C51.4077449,28.3189066 51.4715262,27.1070615 51.4715262,25.8952164 C51.4715262,24.2369021 51.2801822,22.5785877 51.0250569,20.9840547 C47.261959,18.8154897 43.7539863,18.1138952 40.7562642,18.1138952 C34.952164,18.1776765 31.0615034,21.047836 31.0615034,21.047836" id="Shape" fill="#FFD500" fill-rule="nonzero"></path>
                <path d="M68.5649203,19.9635535 L68.5649203,19.9635535 L68.5649203,24.3006834 L74.8154897,24.3006834 C76.2186788,24.3006834 76.9202733,23.5990888 76.9202733,22.1321185 C76.9202733,20.6651481 76.1548975,19.9635535 74.8154897,19.9635535 L68.5649203,19.9635535 L68.5649203,19.9635535 Z M74.8154897,16.3280182 C78.7061503,16.3280182 81.7038724,18.1138952 81.7038724,22.0683371 C81.7038724,26.0865604 78.7061503,27.808656 74.8154897,27.808656 L64.929385,27.808656 C64.2915718,27.808656 63.7813212,27.2984055 63.7813212,26.6605923 L63.7813212,10.9066059 C63.7813212,10.2050114 64.2915718,9.69476082 64.9931663,9.69476082 L79.2801822,9.69476082 C79.9179954,9.69476082 80.4920273,10.2050114 80.4920273,10.9066059 L80.4920273,12.118451 C80.4920273,12.7562642 79.9817768,13.3302961 79.3439636,13.3302961 L68.6287016,13.3302961 L68.6287016,16.3917995 L74.8154897,16.3917995 L74.8154897,16.3280182 Z" id="Shape" fill="#0A5CA0" fill-rule="nonzero"></path>
                <path d="M92.929385,14.9248292 C93.1845103,14.4145786 93.8223235,14.0318907 94.332574,14.0318907 L97.904328,14.0318907 C98.3507973,14.0318907 98.6697039,14.3507973 98.6697039,14.7972665 L98.6697039,27.1708428 C98.6697039,27.6173121 98.3507973,27.9362187 97.904328,27.9362187 L95.2255125,27.9362187 C94.7790433,27.9362187 94.4601367,27.6173121 94.4601367,27.1708428 L94.4601367,18.8792711 L89.9954442,27.0432802 C89.6765376,27.5535308 89.1025057,27.9362187 88.5922551,27.9362187 L85.0205011,27.9362187 C84.5740319,27.9362187 84.2551253,27.6173121 84.2551253,27.1708428 L84.2551253,14.7972665 C84.2551253,14.3507973 84.5740319,14.0318907 85.0205011,14.0318907 L87.6993166,14.0318907 C88.1457859,14.0318907 88.4646925,14.3507973 88.4646925,14.7972665 L88.4646925,23.1526196 L92.929385,14.9248292 Z" id="Shape" fill="#0A5CA0" fill-rule="nonzero"></path>
                <path d="M112.382688,21.9407745 L112.382688,21.9407745 C112.382688,19.8359909 111.234624,18.6241458 109.129841,18.6241458 C107.025057,18.6241458 105.876993,19.8359909 105.876993,21.9407745 C105.876993,24.0455581 107.025057,25.3211845 109.129841,25.3211845 C111.234624,25.2574032 112.382688,24.0455581 112.382688,21.9407745 L112.382688,21.9407745 Z M109.895216,15.690205 C113.849658,15.690205 116.783599,17.8587699 116.783599,21.8769932 C116.783599,25.8314351 114.168565,28.1275626 109.129841,28.1275626 C104.091116,28.1275626 101.476082,25.8314351 101.476082,21.1116173 L101.476082,19.261959 C101.476082,13.7129841 103.134396,10.4601367 108.236902,10.0136674 L115.252847,9.37585421 C115.699317,9.31207289 116.082005,9.56719818 116.082005,10.0136674 L116.082005,11.6719818 C116.082005,12.1822323 115.699317,12.7562642 115.125285,12.8200456 L109.767654,13.2665148 C106.1959,13.5854214 104.984055,14.7972665 104.984055,17.7949886 C106.132118,16.3280182 107.726651,15.690205 109.895216,15.690205 Z" id="Shape" fill="#0A5CA0" fill-rule="nonzero"></path>
                <path d="M122.970387,26.9794989 C122.842825,27.5535308 122.332574,27.9362187 121.822323,27.9362187 L119.207289,27.9362187 C118.76082,27.9362187 118.441913,27.5535308 118.569476,27.1070615 L120.865604,17.8587699 C121.630979,14.7334852 124.373576,14.0318907 127.243736,14.0318907 L133.23918,14.0318907 C133.685649,14.0318907 134.004556,14.3507973 134.004556,14.7972665 L134.004556,27.1708428 C134.004556,27.6173121 133.685649,27.9362187 133.23918,27.9362187 L130.432802,27.9362187 C129.986333,27.9362187 129.667426,27.6173121 129.667426,27.1708428 L129.667426,17.0296128 L127.307517,17.0296128 C126.159453,17.0296128 125.394077,17.5398633 125.075171,18.8792711 L122.970387,26.9794989 Z" id="Shape" fill="#0A5CA0" fill-rule="nonzero"></path>
                <path d="M145.995444,14.9248292 C146.250569,14.4145786 146.888383,14.0318907 147.398633,14.0318907 L150.970387,14.0318907 C151.416856,14.0318907 151.735763,14.3507973 151.735763,14.7972665 L151.735763,27.1708428 C151.735763,27.6173121 151.416856,27.9362187 150.970387,27.9362187 L148.291572,27.9362187 C147.845103,27.9362187 147.526196,27.6173121 147.526196,27.1708428 L147.526196,18.8792711 L143.061503,27.0432802 C142.806378,27.5535308 142.168565,27.9362187 141.658314,27.9362187 L138.08656,27.9362187 C137.640091,27.9362187 137.321185,27.6173121 137.321185,27.1708428 L137.321185,14.7972665 C137.321185,14.3507973 137.640091,14.0318907 138.08656,14.0318907 L140.765376,14.0318907 C141.211845,14.0318907 141.530752,14.3507973 141.530752,14.7972665 L141.530752,23.1526196 L145.995444,14.9248292 Z" id="Shape" fill="#0A5CA0" fill-rule="nonzero"></path>
                <path d="M165.002278,20.9202733 L165.002278,20.9202733 C165.002278,17.8587699 163.917995,16.5831435 161.749431,16.5831435 C159.517084,16.5831435 158.496583,17.8587699 158.496583,20.9202733 C158.496583,23.9817768 159.580866,25.2574032 161.749431,25.2574032 C163.981777,25.2574032 165.002278,23.9817768 165.002278,20.9202733 L165.002278,20.9202733 Z M169.403189,20.9202733 C169.403189,25.7038724 166.660592,28.1275626 161.749431,28.1275626 C156.838269,28.1275626 154.095672,25.7038724 154.095672,20.9202733 C154.095672,16.1366743 156.838269,13.7129841 161.749431,13.7129841 C166.660592,13.7129841 169.403189,16.1366743 169.403189,20.9202733 Z" id="Shape" fill="#0A5CA0" fill-rule="nonzero"></path>
                <path d="M183.371298,10.9066059 C183.371298,10.2050114 183.881549,9.69476082 184.583144,9.69476082 L196.829157,9.69476082 C197.530752,9.69476082 198.041002,10.2050114 198.041002,10.9066059 L198.041002,12.118451 C198.041002,12.8200456 197.530752,13.3302961 196.829157,13.3302961 L188.154897,13.3302961 L188.154897,26.7881549 C188.154897,27.4259681 187.580866,27.9362187 186.943052,27.9362187 L184.519362,27.9362187 C183.881549,27.9362187 183.307517,27.4259681 183.307517,26.7881549 L183.307517,10.9066059 L183.371298,10.9066059 Z" id="Shape" fill="#0A5CA0" fill-rule="nonzero"></path>
                <path d="M199.444191,26.9794989 C199.316629,27.5535308 198.806378,27.9362187 198.296128,27.9362187 L195.681093,27.9362187 C195.234624,27.9362187 194.915718,27.5535308 195.04328,27.1070615 L197.339408,17.8587699 C198.104784,14.7334852 200.84738,14.0318907 203.71754,14.0318907 L209.712984,14.0318907 C210.159453,14.0318907 210.47836,14.3507973 210.47836,14.7972665 L210.47836,27.1708428 C210.47836,27.6173121 210.159453,27.9362187 209.712984,27.9362187 L206.906606,27.9362187 C206.460137,27.9362187 206.14123,27.6173121 206.14123,27.1708428 L206.14123,17.0296128 L203.781321,17.0296128 C202.633257,17.0296128 201.867882,17.5398633 201.548975,18.8792711 L199.444191,26.9794989 Z" id="Shape" fill="#0A5CA0" fill-rule="nonzero"></path>
                <path d="M223.872437,20.9202733 L223.872437,20.9202733 C223.872437,17.8587699 222.788155,16.5831435 220.61959,16.5831435 C218.387244,16.5831435 217.366743,17.8587699 217.366743,20.9202733 C217.366743,23.9817768 218.451025,25.2574032 220.61959,25.2574032 C222.851936,25.2574032 223.872437,23.9817768 223.872437,20.9202733 L223.872437,20.9202733 Z M228.273349,20.9202733 C228.273349,25.7038724 225.530752,28.1275626 220.61959,28.1275626 C215.708428,28.1275626 212.965831,25.7038724 212.965831,20.9202733 C212.965831,16.1366743 215.708428,13.7129841 220.61959,13.7129841 C225.530752,13.7129841 228.273349,16.1366743 228.273349,20.9202733 Z" id="Shape" fill="#0A5CA0" fill-rule="nonzero"></path>
                <path d="M241.539863,21.9407745 L241.539863,21.9407745 C241.539863,19.8359909 240.3918,18.6241458 238.287016,18.6241458 C236.182232,18.6241458 235.034169,19.8359909 235.034169,21.9407745 C235.034169,24.0455581 236.182232,25.3211845 238.287016,25.3211845 C240.3918,25.2574032 241.539863,24.0455581 241.539863,21.9407745 L241.539863,21.9407745 Z M239.052392,15.690205 C243.006834,15.690205 245.940774,17.8587699 245.940774,21.8769932 C245.940774,25.8314351 243.32574,28.1275626 238.287016,28.1275626 C233.248292,28.1275626 230.633257,25.8314351 230.633257,21.1116173 L230.633257,19.261959 C230.633257,13.7129841 232.291572,10.4601367 237.394077,10.0136674 L244.410023,9.37585421 C244.856492,9.31207289 245.23918,9.56719818 245.23918,10.0136674 L245.23918,11.6719818 C245.23918,12.1822323 244.856492,12.7562642 244.28246,12.8200456 L238.924829,13.2665148 C235.353075,13.5854214 234.14123,14.7972665 234.14123,17.7949886 C235.289294,16.3280182 236.883827,15.690205 239.052392,15.690205 Z" id="Shape" fill="#0A5CA0" fill-rule="nonzero"></path>
                <path d="M255.316629,26.7881549 C252.637813,26.7881549 250.660592,25.5125285 249.257403,20.856492 L247.343964,14.7334852 C247.216401,14.3507973 247.535308,13.9681093 247.917995,13.9681093 L250.596811,13.9681093 C251.04328,13.9681093 251.553531,14.3507973 251.744875,14.7972665 L253.403189,20.1548975 C254.232346,22.8974943 255.061503,23.6628702 256.209567,23.6628702 L258.76082,14.7972665 C258.888383,14.2870159 259.334852,13.9681093 259.845103,13.9681093 L262.523918,13.9681093 C262.970387,13.9681093 263.225513,14.3507973 263.09795,14.7334852 L259.781321,26.5968109 C258.633257,30.7425968 257.038724,32.4646925 254.041002,32.4646925 C253.020501,32.4646925 251.553531,32.3371298 250.724374,32.2095672 C250.277904,32.1457859 249.958998,31.8268793 249.958998,31.4441913 L249.958998,29.977221 C249.958998,29.5307517 250.277904,29.2118451 250.724374,29.2118451 L251.170843,29.2118451 C251.744875,29.2118451 252.255125,29.4031891 252.829157,29.4031891 C254.041002,29.4031891 254.806378,28.5102506 255.316629,26.7881549" id="Shape" fill="#0A5CA0" fill-rule="nonzero"></path>
                <path d="M269.157175,20.9202733 C269.157175,23.7904328 269.986333,25.0660592 272.601367,25.0660592 C273.940774,25.0660592 274.897494,24.5558087 275.343964,23.8542141 C275.726651,23.2801822 276.173121,22.8974943 276.810934,22.8974943 L278.724374,22.8974943 C279.170843,22.8974943 279.489749,23.2164009 279.489749,23.6628702 C279.489749,26.5968109 276.810934,28.0637813 272.346241,28.0637813 C267.43508,28.0637813 264.692483,25.6400911 264.692483,20.856492 C264.692483,16.0728929 267.43508,13.6492027 272.218679,13.6492027 C276.683371,13.6492027 279.362187,15.1161731 279.362187,18.0501139 C279.362187,18.4965831 279.04328,18.8154897 278.596811,18.8154897 L276.683371,18.8154897 C276.045558,18.8154897 275.599089,18.4328018 275.216401,17.8587699 C274.769932,17.1571754 273.813212,16.6469248 272.473804,16.6469248 C269.986333,16.7744875 269.157175,18.0501139 269.157175,20.9202733" id="Shape" fill="#0A5CA0" fill-rule="nonzero"></path>
                <polygon id="Shape" fill="#0A5CA0" fill-rule="nonzero" points="65.7585421 37.6309795 63.7813212 37.6309795 63.7813212 36.8656036 68.6924829 36.8656036 68.6924829 37.6309795 66.6514806 37.6309795 66.6514806 43.498861 65.7585421 43.498861"></polygon>
                <path d="M74.5603645,36.8656036 L75.8997722,39.6719818 C76.0911162,40.0546697 76.2186788,40.4373576 76.4100228,40.8200456 L76.4100228,40.8200456 C76.5375854,40.501139 76.6651481,40.118451 76.856492,39.6082005 L77.8769932,36.8018223 L78.7699317,36.8018223 L77.3667426,40.2460137 C76.9840547,41.1389522 76.6013667,42.1594533 76.1548975,42.7972665 C75.7084282,43.3712984 75.261959,43.6264237 74.6241458,43.6264237 C74.4328018,43.6264237 74.2414579,43.6264237 74.1138952,43.5626424 L74.1776765,42.8610478 C74.2414579,42.8610478 74.3690205,42.8610478 74.4965831,42.8610478 C75.1981777,42.8610478 75.5808656,42.2232346 75.7722096,41.7129841 C75.8359909,41.5854214 75.8359909,41.4578588 75.7722096,41.3302961 L73.5398633,36.8656036 L74.5603645,36.8656036 L74.5603645,36.8656036 Z" id="Shape" fill="#0A5CA0" fill-rule="nonzero"></path>
                <path d="M84.7653759,40.1822323 L84.7653759,40.1822323 C84.9567198,40.2460137 85.2118451,40.2460137 85.4669704,40.2460137 C86.4874715,40.2460137 87.1252847,39.7357631 87.1252847,38.8428246 C87.1252847,37.9498861 86.4874715,37.5671982 85.5307517,37.5671982 C85.1480638,37.5671982 84.8929385,37.5671982 84.7015945,37.6309795 L84.7015945,40.1822323 L84.7653759,40.1822323 Z M83.9362187,36.929385 C84.3189066,36.8656036 84.8929385,36.8018223 85.594533,36.8018223 C86.4236902,36.8018223 87.0615034,36.9931663 87.4441913,37.3758542 C87.8268793,37.6947608 88.0182232,38.2050114 88.0182232,38.7790433 C88.0182232,39.3530752 87.8268793,39.8633257 87.5079727,40.1822323 C87.0615034,40.6924829 86.2961276,40.8838269 85.4669704,40.8838269 C85.2118451,40.8838269 84.9567198,40.8838269 84.7653759,40.8200456 L84.7653759,43.498861 L83.9362187,43.498861 L83.9362187,36.929385 Z" id="Shape" fill="#0A5CA0" fill-rule="nonzero"></path>
                <path d="M94.4601367,36.8656036 L94.4601367,39.6719818 C94.4601367,40.6924829 94.4601367,41.5854214 94.3963554,42.4783599 L94.3963554,42.4783599 C94.715262,41.7767654 95.1617312,41.0751708 95.6082005,40.309795 L97.7767654,36.8656036 L98.6059226,36.8656036 L98.6059226,43.498861 L97.7767654,43.498861 L97.7767654,40.6924829 C97.7767654,39.6082005 97.7767654,38.8428246 97.8405467,38.0136674 L97.8405467,38.0136674 C97.5216401,38.715262 97.0751708,39.5444191 96.6287016,40.2460137 L94.523918,43.5626424 L93.6309795,43.5626424 L93.6309795,36.929385 L94.4601367,36.929385 L94.4601367,36.8656036 Z" id="Shape" fill="#0A5CA0" fill-rule="nonzero"></path>
                <path d="M109.257403,43.3075171 C108.938497,43.4350797 108.300683,43.6264237 107.535308,43.6264237 C105.685649,43.6264237 104.28246,42.4145786 104.28246,40.2460137 C104.28246,38.1412301 105.685649,36.738041 107.726651,36.738041 C108.555809,36.738041 109.066059,36.929385 109.321185,37.0569476 L109.129841,37.7585421 C108.810934,37.6309795 108.364465,37.5034169 107.790433,37.5034169 C106.259681,37.5034169 105.175399,38.523918 105.175399,40.2460137 C105.175399,41.904328 106.132118,42.9248292 107.726651,42.9248292 C108.236902,42.9248292 108.810934,42.7972665 109.129841,42.6697039 L109.257403,43.3075171 Z" id="Shape" fill="#0A5CA0" fill-rule="nonzero"></path>
                <polygon id="Shape" fill="#0A5CA0" fill-rule="nonzero" points="116.400911 37.6309795 114.42369 37.6309795 114.42369 36.8656036 119.334852 36.8656036 119.334852 37.6309795 117.29385 37.6309795 117.29385 43.498861 116.400911 43.498861"></polygon>
                <path d="M125.330296,36.8656036 L125.330296,39.6719818 C125.330296,40.6924829 125.330296,41.5854214 125.266515,42.4783599 L125.266515,42.4783599 C125.585421,41.7767654 126.031891,41.0751708 126.47836,40.309795 L128.646925,36.8656036 L129.476082,36.8656036 L129.476082,43.498861 L128.646925,43.498861 L128.646925,40.6924829 C128.646925,39.6082005 128.646925,38.8428246 128.710706,38.0136674 L128.710706,38.0136674 C128.3918,38.715262 127.94533,39.5444191 127.498861,40.2460137 L125.394077,43.5626424 L124.501139,43.5626424 L124.501139,36.929385 L125.330296,36.929385 L125.330296,36.8656036 Z" id="Shape" fill="#0A5CA0" fill-rule="nonzero"></path>
                <path d="M136.236902,36.8656036 L136.236902,38.9703872 C136.236902,39.8633257 136.683371,40.3735763 137.640091,40.3735763 C138.08656,40.3735763 138.596811,40.1822323 138.915718,39.9908884 L138.915718,36.8018223 L139.808656,36.8018223 L139.808656,43.498861 L138.915718,43.498861 L138.915718,40.6924829 L138.915718,40.6924829 C138.469248,40.9476082 137.895216,41.1389522 137.321185,41.1389522 C136.428246,41.1389522 135.343964,40.7562642 135.343964,39.1617312 L135.343964,36.929385 L136.236902,36.929385 L136.236902,36.8656036 Z" id="Shape" fill="#0A5CA0" fill-rule="nonzero"></path>
                <polygon id="Shape" fill="#0A5CA0" fill-rule="nonzero" points="149.248292 40.3735763 146.633257 40.3735763 146.633257 42.7972665 149.567198 42.7972665 149.567198 43.498861 145.8041 43.498861 145.8041 36.8656036 149.375854 36.8656036 149.375854 37.5671982 146.633257 37.5671982 146.633257 39.6719818 149.248292 39.6719818"></polygon>
                <path d="M159.77221,43.3075171 C159.453303,43.4350797 158.81549,43.6264237 157.986333,43.6264237 C156.136674,43.6264237 154.733485,42.4145786 154.733485,40.2460137 C154.733485,38.1412301 156.136674,36.738041 158.177677,36.738041 C159.006834,36.738041 159.517084,36.929385 159.77221,37.0569476 L159.580866,37.7585421 C159.261959,37.6309795 158.81549,37.5034169 158.241458,37.5034169 C156.710706,37.5034169 155.626424,38.523918 155.626424,40.2460137 C155.626424,41.904328 156.583144,42.9248292 158.177677,42.9248292 C158.687927,42.9248292 159.261959,42.7972665 159.580866,42.6697039 L159.77221,43.3075171 Z" id="Shape" fill="#0A5CA0" fill-rule="nonzero"></path>
                <path d="M166.150342,36.8656036 L166.150342,39.7995444 L166.405467,39.7995444 L168.701595,36.8656036 L169.722096,36.8656036 L167.234624,39.9271071 C168.318907,40.0546697 168.765376,40.7562642 169.084282,41.6492027 C169.339408,42.3507973 169.530752,42.9248292 169.785877,43.5626424 L168.829157,43.5626424 C168.574032,43.1161731 168.382688,42.5421412 168.255125,41.9681093 C167.936219,41.0751708 167.553531,40.501139 166.405467,40.501139 L166.150342,40.501139 L166.150342,43.5626424 L165.321185,43.5626424 L165.321185,36.929385 L166.150342,36.929385 L166.150342,36.8656036 Z" id="Shape" fill="#0A5CA0" fill-rule="nonzero"></path>
                <path d="M175.972665,36.8656036 L175.972665,39.6719818 C175.972665,40.6924829 175.972665,41.5854214 175.908884,42.4783599 L175.908884,42.4783599 C176.22779,41.7767654 176.67426,41.0751708 177.120729,40.309795 L179.289294,36.8656036 L180.118451,36.8656036 L180.118451,43.498861 L179.289294,43.498861 L179.289294,40.6924829 C179.289294,39.6082005 179.289294,38.8428246 179.353075,38.0136674 L179.353075,38.0136674 C179.034169,38.715262 178.587699,39.5444191 178.14123,40.2460137 L176.036446,43.5626424 L175.143508,43.5626424 L175.143508,36.929385 L175.972665,36.929385 L175.972665,36.8656036 Z" id="Shape" fill="#0A5CA0" fill-rule="nonzero"></path>
                <path d="M188.027335,35.4624146 L188.027335,35.4624146 C188.091116,35.7813212 188.154897,36.1002278 188.601367,36.1002278 C189.047836,36.1002278 189.175399,35.7813212 189.175399,35.4624146 L189.813212,35.4624146 C189.749431,36.1002278 189.366743,36.546697 188.537585,36.546697 C187.708428,36.546697 187.32574,36.1640091 187.32574,35.4624146 L188.027335,35.4624146 Z M186.943052,36.8656036 L186.943052,39.6719818 C186.943052,40.6924829 186.943052,41.5854214 186.879271,42.4783599 L186.879271,42.4783599 C187.198178,41.7767654 187.644647,41.0751708 188.091116,40.309795 L190.259681,36.8656036 L191.088838,36.8656036 L191.088838,43.498861 L190.259681,43.498861 L190.259681,40.6924829 C190.259681,39.6082005 190.259681,38.8428246 190.323462,38.0136674 L190.323462,38.0136674 C190.004556,38.715262 189.558087,39.5444191 189.111617,40.2460137 L187.006834,43.5626424 L186.113895,43.5626424 L186.113895,36.929385 L186.943052,36.929385 L186.943052,36.8656036 Z" id="Shape" fill="#0A5CA0" fill-rule="nonzero"></path>
                <path d="M204.164009,40.2460137 L204.164009,40.2460137 C204.164009,41.6492027 204.929385,42.9248292 206.268793,42.9248292 C207.6082,42.9248292 208.373576,41.6492027 208.373576,40.1822323 C208.373576,38.8428246 207.671982,37.5034169 206.268793,37.5034169 C204.865604,37.4396355 204.164009,38.7790433 204.164009,40.2460137 L204.164009,40.2460137 Z M209.330296,40.118451 C209.330296,42.4145786 207.927107,43.6264237 206.268793,43.6264237 C204.546697,43.6264237 203.271071,42.2870159 203.271071,40.2460137 C203.271071,38.1412301 204.610478,36.738041 206.332574,36.738041 C208.182232,36.738041 209.330296,38.1412301 209.330296,40.118451 Z" id="Shape" fill="#0A5CA0" fill-rule="nonzero"></path>
                <polygon id="Shape" fill="#0A5CA0" fill-rule="nonzero" points="219.726651 36.8656036 219.726651 43.498861 218.897494 43.498861 218.897494 37.5671982 215.77221 37.5671982 215.77221 43.498861 214.943052 43.498861 214.943052 36.8656036"></polygon>
                <polygon id="Shape" fill="#0A5CA0" fill-rule="nonzero" points="229.166287 40.3735763 226.551253 40.3735763 226.551253 42.7972665 229.421412 42.7972665 229.421412 43.498861 225.722096 43.498861 225.722096 36.8656036 229.29385 36.8656036 229.29385 37.5671982 226.551253 37.5671982 226.551253 39.6719818 229.166287 39.6719818"></polygon>
                <path d="M235.927107,40.1822323 L235.927107,40.1822323 C236.118451,40.2460137 236.373576,40.2460137 236.628702,40.2460137 C237.649203,40.2460137 238.287016,39.7357631 238.287016,38.8428246 C238.287016,37.9498861 237.649203,37.5671982 236.692483,37.5671982 C236.309795,37.5671982 236.05467,37.5671982 235.863326,37.6309795 L235.863326,40.1822323 L235.927107,40.1822323 Z M235.034169,36.929385 C235.480638,36.8656036 235.990888,36.8018223 236.692483,36.8018223 C237.52164,36.8018223 238.159453,36.9931663 238.542141,37.3758542 C238.924829,37.6947608 239.116173,38.2050114 239.116173,38.7790433 C239.116173,39.3530752 238.924829,39.8633257 238.605923,40.1822323 C238.159453,40.6924829 237.394077,40.8838269 236.56492,40.8838269 C236.309795,40.8838269 236.05467,40.8838269 235.863326,40.8200456 L235.863326,43.498861 L235.034169,43.498861 L235.034169,36.929385 L235.034169,36.929385 Z" id="Shape" fill="#0A5CA0" fill-rule="nonzero"></path>
                <path d="M247.216401,40.7562642 L247.216401,40.7562642 L246.578588,38.8428246 C246.451025,38.3963554 246.323462,38.0136674 246.259681,37.6309795 L246.259681,37.6309795 C246.132118,38.0136674 246.068337,38.4601367 245.940774,38.8428246 L245.302961,40.7562642 L247.216401,40.7562642 Z M245.047836,41.3940774 L244.346241,43.498861 L243.453303,43.498861 L245.685649,36.8656036 L246.70615,36.8656036 L249.002278,43.498861 L248.109339,43.498861 L247.407745,41.3940774 L245.047836,41.3940774 L245.047836,41.3940774 Z" id="Shape" fill="#0A5CA0" fill-rule="nonzero"></path>
                <polygon id="Shape" fill="#0A5CA0" fill-rule="nonzero" points="255.316629 37.6309795 253.275626 37.6309795 253.275626 36.8656036 258.186788 36.8656036 258.186788 37.6309795 256.145786 37.6309795 256.145786 43.498861 255.316629 43.498861"></polygon>
                <path d="M263.6082,40.2460137 L263.6082,40.2460137 C263.6082,41.6492027 264.373576,42.9248292 265.712984,42.9248292 C267.052392,42.9248292 267.817768,41.6492027 267.817768,40.1822323 C267.817768,38.8428246 267.116173,37.5034169 265.712984,37.5034169 C264.309795,37.4396355 263.6082,38.7790433 263.6082,40.2460137 L263.6082,40.2460137 Z M268.710706,40.118451 C268.710706,42.4145786 267.307517,43.6264237 265.649203,43.6264237 C263.863326,43.6264237 262.651481,42.2870159 262.651481,40.2460137 C262.651481,38.1412301 263.990888,36.738041 265.712984,36.738041 C267.562642,36.738041 268.710706,38.1412301 268.710706,40.118451 Z" id="Shape" fill="#0A5CA0" fill-rule="nonzero"></path>
                <path d="M275.216401,40.1822323 L275.216401,40.1822323 C275.407745,40.2460137 275.66287,40.2460137 275.917995,40.2460137 C276.938497,40.2460137 277.57631,39.7357631 277.57631,38.8428246 C277.57631,37.9498861 276.938497,37.5671982 275.981777,37.5671982 C275.599089,37.5671982 275.343964,37.5671982 275.15262,37.6309795 L275.15262,40.1822323 L275.216401,40.1822323 Z M274.323462,36.929385 C274.769932,36.8656036 275.280182,36.8018223 275.981777,36.8018223 C276.810934,36.8018223 277.448747,36.9931663 277.831435,37.3758542 C278.214123,37.6947608 278.405467,38.2050114 278.405467,38.7790433 C278.405467,39.3530752 278.214123,39.8633257 277.895216,40.1822323 C277.448747,40.6924829 276.683371,40.8838269 275.854214,40.8838269 C275.599089,40.8838269 275.343964,40.8838269 275.15262,40.8200456 L275.15262,43.498861 L274.323462,43.498861 L274.323462,36.929385 Z" id="Shape" fill="#0A5CA0" fill-rule="nonzero"></path>
                <path d="M176.22779,18.0501139 C177.758542,18.0501139 178.970387,19.261959 178.970387,20.7927107 C178.970387,22.3234624 177.758542,23.5353075 176.22779,23.5353075 C174.697039,23.5353075 173.485194,22.3234624 173.485194,20.7927107 C173.485194,19.3257403 174.697039,18.0501139 176.22779,18.0501139" id="Shape" fill="#0C5DA1"></path>
            </g>
        </g>
    </g>
</svg>