<?xml version="1.0" encoding="UTF-8"?>
<svg width="249px" height="47px" viewBox="0 0 249 47" version="1.1" xmlns="http://www.w3.org/2000/svg" xmlns:xlink="http://www.w3.org/1999/xlink">
    <!-- Generator: Sketch 46.2 (44496) - http://www.bohemiancoding.com/sketch -->
    <title>Biblio Globus Logo_NEW</title>
    <desc>Created with Sketch.</desc>
    <defs></defs>
    <g id="Symbols" stroke="none" stroke-width="1" fill="none" fill-rule="evenodd">
        <g id="Партнеры" transform="translate(-1123.000000, -159.000000)" fill-rule="nonzero">
            <g id="Biblio-Globus-Logo_NEW" transform="translate(1123.000000, 159.000000)">
                <g id="Group" transform="translate(58.000000, 9.000000)" fill="#005EA1">
                    <path d="M10.6111111,6.3 C14.1481481,6.3 16.899177,7.85555556 16.899177,11.5111111 C16.899177,15.0888889 14.1481481,16.7222222 10.6111111,16.7222222 L1.57201646,16.7222222 C0.943209877,16.7222222 0.550205761,16.2555556 0.550205761,15.6333333 L0.550205761,1.4 C0.550205761,0.777777778 1.0218107,0.311111111 1.65061728,0.311111111 L14.6197531,0.311111111 C15.2485597,0.311111111 15.7201646,0.777777778 15.7201646,1.4 L15.7201646,2.48888889 C15.7201646,3.11111111 15.2485597,3.57777778 14.6197531,3.57777778 L4.87325103,3.57777778 L4.87325103,6.3 L10.6111111,6.3 L10.6111111,6.3 Z M4.95185185,9.48888889 L4.95185185,13.4555556 L10.6111111,13.4555556 C11.8687243,13.4555556 12.5761317,12.8333333 12.5761317,11.5111111 C12.5761317,10.1888889 11.8687243,9.56666667 10.6111111,9.56666667 L4.95185185,9.56666667 L4.95185185,9.48888889 Z" id="Shape"></path>
                    <path d="M27.117284,4.97777778 C27.3530864,4.51111111 27.981893,4.12222222 28.4534979,4.12222222 L31.6761317,4.12222222 C32.0691358,4.12222222 32.3835391,4.43333333 32.3835391,4.82222222 L32.3835391,15.9444444 C32.3835391,16.3333333 32.0691358,16.6444444 31.6761317,16.6444444 L29.2395062,16.6444444 C28.8465021,16.6444444 28.5320988,16.3333333 28.5320988,15.9444444 L28.5320988,8.47777778 L24.444856,15.8666667 C24.2090535,16.3333333 23.5802469,16.7222222 23.108642,16.7222222 L19.8860082,16.7222222 C19.4930041,16.7222222 19.1786008,16.4111111 19.1786008,16.0222222 L19.1786008,4.9 C19.1786008,4.51111111 19.4930041,4.2 19.8860082,4.2 L22.3226337,4.2 C22.7156379,4.2 23.0300412,4.51111111 23.0300412,4.9 L23.0300412,12.4444444 L27.117284,4.97777778 Z" id="Shape"></path>
                    <path d="M42.5230453,5.67777778 C46.1386831,5.67777778 48.7325103,7.62222222 48.7325103,11.2777778 C48.7325103,14.8555556 46.3744856,16.8777778 41.8156379,16.8777778 C37.2567901,16.8777778 34.8987654,14.8555556 34.8987654,10.5777778 L34.8987654,8.94444444 C34.8987654,3.96666667 36.3921811,1.01111111 41.0296296,0.622222222 L47.3962963,0.0777777778 C47.7893004,5.96744876e-16 48.1823045,0.233333333 48.1823045,0.7 L48.1823045,2.17777778 C48.1823045,2.64444444 47.7893004,3.18888889 47.3176955,3.26666667 L42.4444444,3.65555556 C39.2218107,3.88888889 38.0427984,4.97777778 38.0427984,7.7 C39.1432099,6.3 40.5580247,5.67777778 42.5230453,5.67777778 M44.8024691,11.2777778 C44.8024691,9.33333333 43.7020576,8.32222222 41.8156379,8.32222222 C39.9292181,8.32222222 38.8288066,9.41111111 38.8288066,11.2777778 C38.8288066,13.2222222 39.9292181,14.3111111 41.8156379,14.3111111 C43.7020576,14.3111111 44.8024691,13.2222222 44.8024691,11.2777778" id="Shape"></path>
                    <path d="M54.4703704,15.8666667 C54.3131687,16.3333333 53.8415638,16.7222222 53.3699588,16.7222222 L51.0119342,16.7222222 C50.61893,16.7222222 50.3045267,16.3333333 50.3831276,15.9444444 L52.426749,7.62222222 C53.1341564,4.82222222 55.6493827,4.2 58.2432099,4.2 L63.6666667,4.2 C64.0596708,4.2 64.3740741,4.51111111 64.3740741,4.9 L64.3740741,16.0222222 C64.3740741,16.4111111 64.0596708,16.7222222 63.6666667,16.7222222 L61.0728395,16.7222222 C60.6798354,16.7222222 60.3654321,16.4111111 60.3654321,16.0222222 L60.3654321,7 L58.1646091,7 C57.1427984,7 56.4353909,7.46666667 56.1209877,8.71111111 L54.4703704,15.8666667 Z" id="Shape"></path>
                    <path d="M75.2995885,4.97777778 C75.5353909,4.51111111 76.1641975,4.12222222 76.6358025,4.12222222 L79.8584362,4.12222222 C80.2514403,4.12222222 80.5658436,4.43333333 80.5658436,4.82222222 L80.5658436,15.9444444 C80.5658436,16.3333333 80.2514403,16.6444444 79.8584362,16.6444444 L77.4218107,16.6444444 C77.0288066,16.6444444 76.7144033,16.3333333 76.7144033,15.9444444 L76.7144033,8.47777778 L72.6271605,15.8666667 C72.391358,16.3333333 71.7625514,16.7222222 71.2909465,16.7222222 L68.0683128,16.7222222 C67.6753086,16.7222222 67.3609053,16.4111111 67.3609053,16.0222222 L67.3609053,4.9 C67.3609053,4.51111111 67.6753086,4.2 68.0683128,4.2 L70.5049383,4.2 C70.8979424,4.2 71.2123457,4.51111111 71.2123457,4.9 L71.2123457,12.4444444 L75.2995885,4.97777778 Z" id="Shape"></path>
                    <path d="M96.6790123,10.4222222 C96.6790123,14.7 94.163786,16.9555556 89.6835391,16.9555556 C85.2032922,16.9555556 82.6880658,14.7777778 82.6880658,10.4222222 C82.6880658,6.14444444 85.2032922,3.96666667 89.6835391,3.96666667 C94.163786,3.96666667 96.6790123,6.14444444 96.6790123,10.4222222 M92.6703704,10.4222222 C92.6703704,7.7 91.7271605,6.53333333 89.6835391,6.53333333 C87.6399177,6.53333333 86.6967078,7.62222222 86.6967078,10.4222222 C86.6967078,13.1444444 87.6399177,14.3111111 89.6835391,14.3111111 C91.7271605,14.3111111 92.6703704,13.1444444 92.6703704,10.4222222" id="Shape"></path>
                    <path d="M103.517284,1.4 C103.517284,0.777777778 103.988889,0.311111111 104.617695,0.311111111 L115.779012,0.311111111 C116.407819,0.311111111 116.879424,0.777777778 116.879424,1.4 L116.879424,2.48888889 C116.879424,3.11111111 116.407819,3.57777778 115.779012,3.57777778 L107.91893,3.57777778 L107.91893,15.6333333 C107.91893,16.2555556 107.447325,16.7222222 106.818519,16.7222222 L104.617695,16.7222222 C103.988889,16.7222222 103.517284,16.2555556 103.517284,15.6333333 L103.517284,1.4 Z" id="Shape"></path>
                    <path d="M118.137037,15.8666667 C117.979835,16.3333333 117.50823,16.7222222 117.036626,16.7222222 L114.678601,16.7222222 C114.285597,16.7222222 113.971193,16.3333333 114.049794,15.9444444 L116.093416,7.62222222 C116.800823,4.82222222 119.316049,4.2 121.909877,4.2 L127.333333,4.2 C127.726337,4.2 128.040741,4.51111111 128.040741,4.9 L128.040741,16.0222222 C128.040741,16.4111111 127.726337,16.7222222 127.333333,16.7222222 L124.739506,16.7222222 C124.346502,16.7222222 124.032099,16.4111111 124.032099,16.0222222 L124.032099,7 L121.831276,7 C120.809465,7 120.102058,7.46666667 119.787654,8.71111111 L118.137037,15.8666667 Z" id="Shape"></path>
                    <path d="M144.389712,10.4222222 C144.389712,14.7 141.874486,16.9555556 137.394239,16.9555556 C132.913992,16.9555556 130.398765,14.7777778 130.398765,10.4222222 C130.398765,6.14444444 132.913992,3.96666667 137.394239,3.96666667 C141.874486,3.96666667 144.389712,6.14444444 144.389712,10.4222222 M140.38107,10.4222222 C140.38107,7.7 139.43786,6.53333333 137.394239,6.53333333 C135.350617,6.53333333 134.407407,7.62222222 134.407407,10.4222222 C134.407407,13.1444444 135.350617,14.3111111 137.394239,14.3111111 C139.43786,14.3111111 140.38107,13.1444444 140.38107,10.4222222" id="Shape"></path>
                    <path d="M154.136214,5.67777778 C157.751852,5.67777778 160.345679,7.62222222 160.345679,11.2777778 C160.345679,14.8555556 157.987654,16.8777778 153.428807,16.8777778 C148.869959,16.8777778 146.511934,14.8555556 146.511934,10.5777778 L146.511934,8.94444444 C146.511934,3.96666667 148.00535,1.01111111 152.642798,0.622222222 L159.009465,0.0777777778 C159.402469,5.96744876e-16 159.795473,0.233333333 159.795473,0.7 L159.795473,2.17777778 C159.795473,2.64444444 159.402469,3.18888889 158.930864,3.26666667 L154.057613,3.65555556 C150.834979,3.88888889 149.655967,4.97777778 149.655967,7.7 C150.677778,6.3 152.171193,5.67777778 154.136214,5.67777778 M156.415638,11.2777778 C156.415638,9.33333333 155.315226,8.32222222 153.428807,8.32222222 C151.542387,8.32222222 150.441975,9.41111111 150.441975,11.2777778 C150.441975,13.2222222 151.542387,14.3111111 153.428807,14.3111111 C155.315226,14.3111111 156.415638,13.2222222 156.415638,11.2777778" id="Shape"></path>
                    <path d="M168.913169,15.7111111 C166.476543,15.7111111 164.668724,14.6222222 163.411111,10.3444444 L161.681893,4.82222222 C161.524691,4.51111111 161.839095,4.12222222 162.232099,4.12222222 L164.668724,4.12222222 C165.061728,4.12222222 165.533333,4.43333333 165.690535,4.9 L167.183951,9.72222222 C167.969959,12.2111111 168.677366,12.9111111 169.699177,12.9111111 L171.978601,4.9 C172.057202,4.43333333 172.528807,4.12222222 172.921811,4.12222222 L175.358436,4.12222222 C175.75144,4.12222222 175.987243,4.43333333 175.908642,4.82222222 L172.921811,15.4777778 C171.821399,19.2111111 170.406584,20.7666667 167.734156,20.7666667 C166.790947,20.7666667 165.454733,20.6888889 164.747325,20.5333333 C164.354321,20.4555556 164.039918,20.1444444 164.039918,19.8333333 L164.039918,18.5888889 C164.039918,18.2 164.354321,17.8888889 164.747325,17.8888889 L165.140329,17.8888889 C165.690535,17.8888889 166.083539,18.0444444 166.633745,18.0444444 C167.734156,18.0444444 168.441564,17.2666667 168.913169,15.7111111" id="Shape"></path>
                    <path d="M181.4893,10.4222222 C181.4893,12.9888889 182.275309,14.1555556 184.633333,14.1555556 C185.812346,14.1555556 186.676955,13.6888889 187.14856,13.0666667 C187.462963,12.5222222 187.855967,12.2111111 188.484774,12.2111111 L190.213992,12.2111111 C190.606996,12.2111111 190.921399,12.5222222 190.921399,12.9111111 C190.921399,15.5555556 188.484774,16.8777778 184.397531,16.8777778 C179.917284,16.8777778 177.402058,14.7 177.402058,10.4222222 C177.402058,6.14444444 179.917284,3.88888889 184.240329,3.88888889 C188.327572,3.88888889 190.764198,5.21111111 190.764198,7.85555556 C190.764198,8.24444444 190.449794,8.55555556 190.05679,8.55555556 L188.327572,8.55555556 C187.698765,8.55555556 187.305761,8.24444444 186.991358,7.7 C186.598354,7.07777778 185.733745,6.61111111 184.476132,6.61111111 C182.275309,6.68888889 181.4893,7.85555556 181.4893,10.4222222" id="Shape"></path>
                </g>
                <g id="Group">
                    <path d="M7.12833333,24.1266667 C7.12833333,24.3616667 7.12833333,24.5966667 7.12833333,24.8316667 C7.12833333,33.37 14.2566667,40.3416667 23.1083333,40.3416667 C28.3566667,40.3416667 32.9783333,37.9133333 35.955,34.075 C35.72,33.9183333 34.78,33.5266667 34.4666667,33.2916667 C31.5683333,36.5033333 27.8866667,38.775 23.1083333,38.775 C14.57,38.775 7.59833333,32.2733333 7.12833333,24.1266667" id="Shape" fill="#0095DB"></path>
                    <path d="M23.6566667,23.5783333 C23.5,23.5783333 23.3433333,23.5783333 23.3433333,23.5783333 C23.3433333,9.87 13.63,3.21166667 12.925,2.74166667 C5.32666667,6.58 0.0783333333,14.4916667 0.0783333333,23.5783333 C0.0783333333,36.425 10.4966667,46.9216667 23.4216667,46.9216667 C32.9783333,46.9216667 41.2033333,41.2033333 44.8066667,32.9 L44.7283333,32.8216667 C36.895,23.97 25.615,23.5783333 23.6566667,23.5783333 M23.3433333,41.595 C13.395,41.595 5.405,33.5266667 5.405,23.5783333 C5.405,17.86 8.06833333,12.69 12.455,9.32166667 C14.805,11.8283333 18.095,16.5283333 18.095,23.5783333 L18.095,29.14 L23.6566667,28.905 L23.8133333,28.905 C24.7533333,28.905 32.1166667,29.0616667 38.2266667,33.9183333 C34.78,38.6183333 29.2966667,41.595 23.3433333,41.595" id="Shape" fill="#005EA1"></path>
                    <path d="M27.1816667,19.6616667 C27.1816667,19.6616667 27.26,19.6616667 27.495,19.6616667 C27.8083333,19.6616667 28.5133333,19.6616667 29.375,19.74 C32.665,19.1133333 36.9733333,19.27 41.7516667,20.915 C42.535,21.2283333 43.3966667,21.5416667 44.18,21.855 C42.6133333,19.975 37.4433333,16.3716667 29.4533333,18.7216667 C28.9833333,18.8783333 28.5916667,18.9566667 28.1216667,19.1133333 C28.1216667,19.1133333 31.6466667,16.5283333 36.9733333,16.45 C39.6366667,16.45 42.8483333,17.0766667 46.2166667,19.035 C44.18,8.30333333 34.7016667,0.156666667 23.3433333,0.156666667 C21.855,0.156666667 20.445,0.313333333 19.035,0.548333333 C22.09,3.525 27.1816667,9.79166667 27.1816667,19.6616667" id="Shape" fill="#EC6608"></path>
                    <path d="M28.1216667,19.1916667 C28.5916667,19.035 28.9833333,18.8783333 29.4533333,18.8 C37.365,16.5283333 42.6133333,20.0533333 44.18,21.9333333 C43.3966667,21.5416667 42.535,21.2283333 41.7516667,20.9933333 C37.0516667,19.3483333 32.665,19.1916667 29.375,19.8183333 C32.9783333,20.1316667 40.3416667,21.385 46.4516667,26.8683333 C46.6083333,25.7716667 46.6866667,24.7533333 46.6866667,23.6566667 C46.6866667,22.1683333 46.53,20.68 46.295,19.1916667 C42.8483333,17.2333333 39.715,16.6066667 37.0516667,16.6066667 C31.6466667,16.6066667 28.1216667,19.1916667 28.1216667,19.1916667" id="Shape" fill="#FFD500"></path>
                </g>
                <g id="Group" transform="translate(58.000000, 32.000000)" fill="#005EA1">
                    <polygon id="Shape" points="2.36514523 2.4 0.55186722 2.4 0.55186722 1.76 4.8879668 1.76 4.8879668 2.4 3.15352697 2.4 3.15352697 7.68 2.36514523 7.68"></polygon>
                    <path d="M10.0912863,1.68 L11.2738589,4.24 C11.4315353,4.56 11.5892116,4.96 11.6680498,5.28 L11.6680498,5.28 C11.746888,4.96 11.9045643,4.64 12.0622407,4.24 L13.0082988,1.76 L13.7966805,1.76 L12.5352697,4.8 C12.219917,5.6 11.8257261,6.48 11.4315353,7.04 C11.0373444,7.52 10.6431535,7.76 10.0912863,7.76 C9.93360996,7.76 9.77593361,7.76 9.69709544,7.68 L9.77593361,7.04 C9.85477178,7.04 9.93360996,7.04 10.0912863,7.04 C10.7219917,7.04 11.0373444,6.48 11.2738589,6 C11.3526971,5.84 11.3526971,5.76 11.2738589,5.68 L9.30290456,1.68 L10.0912863,1.68 Z" id="Shape"></path>
                    <path d="M18.3692946,1.76 C18.7634855,1.68 19.2365145,1.68 19.7883817,1.68 C20.4979253,1.68 21.0497925,1.84 21.4439834,2.16 C21.7593361,2.48 21.9170124,2.88 21.9170124,3.44 C21.9170124,4 21.7593361,4.4 21.4439834,4.72 C21.0497925,5.12 20.4190871,5.36 19.6307054,5.36 C19.3941909,5.36 19.2365145,5.36 19,5.28 L19,7.68 L18.2116183,7.68 L18.2116183,1.76 L18.3692946,1.76 Z M19.0788382,4.64 C19.2365145,4.72 19.473029,4.72 19.7095436,4.72 C20.6556017,4.72 21.2074689,4.24 21.2074689,3.44 C21.2074689,2.64 20.6556017,2.24 19.8672199,2.24 C19.5518672,2.24 19.3153527,2.24 19.1576763,2.32 L19.1576763,4.64 L19.0788382,4.64 Z" id="Shape"></path>
                    <path d="M27.593361,1.68 L27.593361,4.16 C27.593361,5.12 27.593361,5.84 27.5145228,6.64 L27.5145228,6.64 C27.8298755,6 28.1452282,5.36 28.6182573,4.64 L30.5103734,1.6 L31.2987552,1.6 L31.2987552,7.52 L30.5892116,7.52 L30.5892116,4.96 C30.5892116,4 30.5892116,3.28 30.6680498,2.56 L30.6680498,2.56 C30.3526971,3.2 29.9585062,3.92 29.5643154,4.56 L27.7510373,7.52 L26.9626556,7.52 L26.9626556,1.6 L27.593361,1.6 L27.593361,1.68 Z" id="Shape"></path>
                    <path d="M40.6016598,7.44 C40.2863071,7.6 39.7344398,7.76 39.0248963,7.76 C37.3692946,7.76 36.1078838,6.72 36.1078838,4.72 C36.1078838,2.88 37.3692946,1.6 39.1825726,1.6 C39.8921162,1.6 40.3651452,1.76 40.6016598,1.84 L40.4439834,2.48 C40.1286307,2.32 39.7344398,2.24 39.2614108,2.24 C37.9211618,2.24 36.9751037,3.12 36.9751037,4.72 C36.9751037,6.16 37.7634855,7.12 39.1825726,7.12 C39.6556017,7.12 40.1286307,7.04 40.4439834,6.88 L40.6016598,7.44 Z" id="Shape"></path>
                    <polygon id="Shape" points="46.9087137 2.4 45.0954357 2.4 45.0954357 1.76 49.4315353 1.76 49.4315353 2.4 47.6182573 2.4 47.6182573 7.68 46.8298755 7.68 46.8298755 2.4"></polygon>
                    <path d="M54.7925311,1.68 L54.7925311,4.16 C54.7925311,5.12 54.7925311,5.84 54.7136929,6.64 L54.7136929,6.64 C55.0290456,6 55.3443983,5.36 55.8174274,4.64 L57.7095436,1.6 L58.4979253,1.6 L58.4979253,7.52 L57.7883817,7.52 L57.7883817,4.96 C57.7883817,4 57.7883817,3.28 57.8672199,2.56 L57.8672199,2.56 C57.5518672,3.2 57.1576763,3.92 56.7634855,4.56 L54.9502075,7.52 L54.1618257,7.52 L54.1618257,1.6 L54.7925311,1.6 L54.7925311,1.68 Z" id="Shape"></path>
                    <path d="M64.4107884,1.68 L64.4107884,3.6 C64.4107884,4.4 64.8049793,4.88 65.6721992,4.88 C66.06639,4.88 66.5394191,4.72 66.8547718,4.56 L66.8547718,1.76 L67.6431535,1.76 L67.6431535,7.76 L66.8547718,7.76 L66.8547718,5.2 L66.8547718,5.2 C66.4605809,5.44 65.9875519,5.6 65.4356846,5.6 C64.6473029,5.6 63.7012448,5.28 63.7012448,3.84 L63.7012448,1.84 L64.4107884,1.84 L64.4107884,1.68 Z" id="Shape"></path>
                    <polygon id="Shape" points="75.8423237 4.88 73.5560166 4.88 73.5560166 7.04 76.0788382 7.04 76.0788382 7.68 72.7676349 7.68 72.7676349 1.76 75.9211618 1.76 75.9211618 2.4 73.5560166 2.4 73.5560166 4.24 75.8423237 4.24"></polygon>
                    <path d="M85.06639,7.44 C84.7510373,7.6 84.1991701,7.76 83.4896266,7.76 C81.8340249,7.76 80.5726141,6.72 80.5726141,4.72 C80.5726141,2.88 81.8340249,1.6 83.6473029,1.6 C84.3568465,1.6 84.8298755,1.76 85.06639,1.84 L84.9087137,2.48 C84.593361,2.32 84.1991701,2.24 83.7261411,2.24 C82.3858921,2.24 81.439834,3.12 81.439834,4.72 C81.439834,6.16 82.2282158,7.12 83.6473029,7.12 C84.120332,7.12 84.593361,7.04 84.9087137,6.88 L85.06639,7.44 Z" id="Shape"></path>
                    <path d="M90.7427386,1.68 L90.7427386,4.32 L90.9792531,4.32 L92.9502075,1.68 L93.8962656,1.68 L91.6887967,4.4 C92.6348548,4.56 93.0290456,5.12 93.3443983,5.92 C93.5809129,6.56 93.7385892,7.04 93.9751037,7.6 L93.186722,7.6 C92.9502075,7.2 92.7925311,6.64 92.6348548,6.16 C92.3983402,5.36 92.0041494,4.8 90.9792531,4.8 L90.7427386,4.8 L90.7427386,7.52 L90.033195,7.52 L90.033195,1.6 L90.7427386,1.6 L90.7427386,1.68 Z" id="Shape"></path>
                    <path d="M99.3360996,1.68 L99.3360996,4.16 C99.3360996,5.12 99.3360996,5.84 99.2572614,6.64 L99.2572614,6.64 C99.5726141,6 99.8879668,5.36 100.360996,4.64 L102.253112,1.6 L103.041494,1.6 L103.041494,7.52 L102.33195,7.52 L102.33195,4.96 C102.33195,4 102.33195,3.28 102.410788,2.56 L102.410788,2.56 C102.095436,3.2 101.701245,3.92 101.307054,4.56 L99.4937759,7.52 L98.7053942,7.52 L98.7053942,1.6 L99.3360996,1.6 L99.3360996,1.68 Z" id="Shape"></path>
                    <path d="M109.033195,1.68 L109.033195,4.16 C109.033195,5.12 109.033195,5.84 108.954357,6.64 L108.954357,6.64 C109.26971,6 109.585062,5.36 110.058091,4.64 L111.950207,1.6 L112.738589,1.6 L112.738589,7.52 L111.950207,7.52 L111.950207,4.96 C111.950207,4 111.950207,3.28 112.029046,2.56 L112.029046,2.56 C111.713693,3.2 111.319502,3.92 110.925311,4.56 L109.112033,7.52 L108.323651,7.52 L108.323651,1.6 L109.033195,1.6 L109.033195,1.68 Z M109.979253,0.48 C109.979253,0.8 110.136929,1.04 110.53112,1.04 C110.925311,1.04 111.004149,0.8 111.082988,0.48 L111.634855,0.48 C111.556017,1.04 111.240664,1.44 110.53112,1.44 C109.821577,1.44 109.506224,1.04 109.427386,0.48 L109.979253,0.48 Z" id="Shape"></path>
                    <path d="M128.742739,4.64 C128.742739,6.72 127.481328,7.76 126.062241,7.76 C124.485477,7.76 123.460581,6.56 123.460581,4.72 C123.460581,2.8 124.643154,1.6 126.141079,1.6 C127.717842,1.6 128.742739,2.88 128.742739,4.64 Z M124.170124,4.72 C124.170124,6 124.879668,7.12 126.062241,7.12 C127.244813,7.12 127.954357,6 127.954357,4.64 C127.954357,3.44 127.323651,2.24 126.062241,2.24 C124.80083,2.24 124.170124,3.44 124.170124,4.72 Z" id="Shape"></path>
                    <polygon id="Shape" points="137.887967 1.68 137.887967 7.6 137.099585 7.6 137.099585 2.4 134.419087 2.4 134.419087 7.68 133.630705 7.68 133.630705 1.76 137.887967 1.76"></polygon>
                    <polygon id="Shape" points="146.165975 4.88 143.879668 4.88 143.879668 7.04 146.40249 7.04 146.40249 7.68 143.091286 7.68 143.091286 1.76 146.244813 1.76 146.244813 2.4 143.879668 2.4 143.879668 4.24 146.165975 4.24"></polygon>
                    <path d="M151.369295,1.76 C151.763485,1.68 152.236515,1.68 152.788382,1.68 C153.497925,1.68 154.049793,1.84 154.443983,2.16 C154.759336,2.48 154.917012,2.88 154.917012,3.44 C154.917012,4 154.759336,4.4 154.443983,4.72 C154.049793,5.12 153.419087,5.36 152.630705,5.36 C152.394191,5.36 152.236515,5.36 152,5.28 L152,7.68 L151.211618,7.68 L151.211618,1.76 L151.369295,1.76 Z M152.078838,4.64 C152.236515,4.72 152.473029,4.72 152.709544,4.72 C153.655602,4.72 154.207469,4.24 154.207469,3.44 C154.207469,2.64 153.655602,2.24 152.86722,2.24 C152.551867,2.24 152.315353,2.24 152.157676,2.32 L152.157676,4.64 L152.078838,4.64 Z" id="Shape"></path>
                    <path d="M160.120332,5.76 L159.489627,7.6 L158.701245,7.6 L160.672199,1.68 L161.618257,1.68 L163.589212,7.6 L162.80083,7.6 L162.170124,5.76 L160.120332,5.76 Z M162.012448,5.2 L161.460581,3.52 C161.302905,3.12 161.224066,2.8 161.145228,2.4 L161.145228,2.4 C161.06639,2.72 160.987552,3.12 160.829876,3.44 L160.278008,5.12 L162.012448,5.12 L162.012448,5.2 Z" id="Shape"></path>
                    <polygon id="Shape" points="169.186722 2.4 167.373444 2.4 167.373444 1.76 171.709544 1.76 171.709544 2.4 169.896266 2.4 169.896266 7.68 169.107884 7.68 169.107884 2.4"></polygon>
                    <path d="M181.012448,4.64 C181.012448,6.72 179.751037,7.76 178.33195,7.76 C176.755187,7.76 175.73029,6.56 175.73029,4.72 C175.73029,2.8 176.912863,1.6 178.410788,1.6 C179.987552,1.6 181.012448,2.88 181.012448,4.64 Z M176.439834,4.72 C176.439834,6 177.149378,7.12 178.33195,7.12 C179.514523,7.12 180.224066,6 180.224066,4.64 C180.224066,3.44 179.593361,2.24 178.33195,2.24 C177.070539,2.24 176.439834,3.44 176.439834,4.72 Z" id="Shape"></path>
                    <path d="M185.900415,1.76 C186.294606,1.68 186.767635,1.68 187.319502,1.68 C188.029046,1.68 188.580913,1.84 188.975104,2.16 C189.290456,2.48 189.448133,2.88 189.448133,3.44 C189.448133,4 189.290456,4.4 188.975104,4.72 C188.580913,5.12 187.950207,5.36 187.161826,5.36 C186.925311,5.36 186.767635,5.36 186.53112,5.28 L186.53112,7.68 L185.742739,7.68 L185.742739,1.76 L185.900415,1.76 Z M186.688797,4.64 C186.846473,4.72 187.082988,4.72 187.319502,4.72 C188.26556,4.72 188.817427,4.24 188.817427,3.44 C188.817427,2.64 188.26556,2.24 187.477178,2.24 C187.161826,2.24 186.925311,2.24 186.767635,2.32 L186.767635,4.64 L186.688797,4.64 Z" id="Shape"></path>
                </g>
            </g>
        </g>
    </g>
</svg>