<svg xmlns="http://www.w3.org/2000/svg" width="114" height="23" viewBox="0 0 114 23">
    <g fill="#FFF" fill-rule="evenodd">
        <path d="M88.89 11.178c-1.581 0-2.13.874-2.13 1.96v3.973c0 1.09.549 1.966 2.13 1.966s2.14-.876 2.14-1.966v-3.972c0-1.087-.559-1.961-2.14-1.961zM111 22.788h-5.05l-4.27-7.201v7.201h-4.658V1.178l4.659-.784v13.911l4.27-6.839H111l-4.662 7.464L111 22.788zm-15.312-6.133c0 3.202-1.31 6.307-6.78 6.307-5.477 0-6.81-3.105-6.81-6.307v-3.091c0-3.203 1.333-6.308 6.81-6.308 5.47 0 6.78 3.105 6.78 6.308v3.091zm-14.919 0c0 3.202-1.308 6.307-6.781 6.307-5.476 0-6.808-3.105-6.808-6.307v-3.091c0-3.203 1.332-6.308 6.808-6.308 5.473 0 6.781 3.105 6.781 6.308v3.091zm-14.93-.081c0 3.711-1.05 6.418-7.409 6.418-2.295 0-3.643-.204-6.178-.598V1.179l4.657-.785v7.42c1.007-.378 2.31-.57 3.496-.57 4.66 0 5.434 2.111 5.434 5.502v3.828zm-15.145-.072H42.15v.316c0 1.792.631 2.26 2.719 2.26 1.877 0 3.023-.094 5.434-.514v3.83c-2.326.48-3.537.606-5.82.606-5.003 0-6.992-2.658-6.992-6.498v-3.146c0-3.359 1.477-6.111 6.602-6.111 5.126 0 6.6 2.72 6.6 6.111v3.146zm-14.58-4.82c-2.416-.419-3.11-.512-4.273-.512-2.088 0-2.72.467-2.72 2.258v3.39c0 1.792.632 2.26 2.72 2.26 1.163 0 1.857-.094 4.273-.514v3.83c-2.117.48-3.495.606-4.66.606-5.003 0-6.99-2.658-6.99-6.498V13.75c0-3.844 1.987-6.506 6.99-6.506 1.165 0 2.543.127 4.66.607v3.83zM22.91 22.816h-3.883l-.167-.992a8.83 8.83 0 0 1-4.4 1.154c-2.848 0-4.364-1.923-4.364-4.581 0-3.136 1.769-4.256 4.933-4.256h3.22v-.677c0-1.602-.181-2.072-2.617-2.072h-3.984l.39-3.927h4.354c5.346 0 6.518 1.707 6.518 6.03v9.321zm-15.923-.029H2.329V11.393H0V7.466h2.329V5.109C2.329 1.905 3.643 0 7.377 0h3.11v3.927H8.543c-1.454 0-1.551.55-1.551 1.573l-.006 1.966h3.522l-.413 3.927H6.987v11.395zm66.986-11.61c-1.585 0-2.134.874-2.134 1.96v3.973c0 1.09.549 1.966 2.134 1.966 1.58 0 2.133-.876 2.133-1.966v-3.972c0-1.087-.553-1.961-2.133-1.961zm-59.219 7.158c0 .86.402 1.306 1.288 1.306.951 0 1.513-.313 2.207-.635v-1.72h-2.078c-.985 0-1.417.184-1.417 1.05zm29.34-7.555c-1.582 0-1.943.878-1.943 1.965v.61h3.884v-.61c0-1.087-.36-1.965-1.941-1.965zm15.145.397c-.95 0-1.635.314-2.33.635v7.257c.667.066 1.047.066 1.679.066 2.281 0 2.593-1.057 2.593-2.53V13.14c0-1.087-.357-1.961-1.942-1.961zM112.22 21.444h.196c.222 0 .411-.08.411-.286 0-.147-.108-.293-.41-.293a1.3 1.3 0 0 0-.197.013v.566zm0 .925h-.269v-1.67c.141-.02.276-.04.478-.04.257 0 .425.052.527.126.101.073.154.186.154.346 0 .22-.147.352-.33.406v.014c.149.026.25.158.283.404.04.26.081.36.108.414h-.283c-.04-.054-.082-.207-.115-.426-.04-.213-.148-.293-.365-.293h-.188v.719zm.283-2.136c-.666 0-1.213.565-1.213 1.264 0 .711.547 1.27 1.221 1.27.674.007 1.213-.559 1.213-1.264s-.54-1.27-1.213-1.27h-.008zm.008-.233c.829 0 1.489.665 1.489 1.497 0 .844-.66 1.503-1.497 1.503-.828 0-1.503-.66-1.503-1.503 0-.832.675-1.497 1.503-1.497h.008z"/>
    </g>
</svg>
