<svg xmlns="http://www.w3.org/2000/svg" width="94" height="94" viewBox="0 0 94 94">
    <g fill="none" fill-rule="evenodd" transform="translate(2 2)">
        <path fill="#FECB2F" fill-rule="nonzero" d="M37.004 18c-2.186 0-4.374.8-5.972 2.398-3.074 3.08-3.273 7.96-.61 11.272h-6.337A4.095 4.095 0 0 0 20 35.767v3.598a4.101 4.101 0 0 0 2.936 3.931V67.85a4.096 4.096 0 0 0 4.09 4.097h35.946c2.251 0 4.09-1.84 4.088-4.097V43.296a4.107 4.107 0 0 0 2.94-3.93v-3.599a4.099 4.099 0 0 0-4.09-4.097h-6.34a8.406 8.406 0 0 0 1.86-5.297c0-2.257-.877-4.38-2.468-5.977-3.188-3.193-8.743-3.193-11.93 0-1.04 1.042-1.665 2.663-2.033 4.403-.368-1.74-.993-3.36-2.033-4.4C41.375 18.798 39.19 18 37.004 18zM37 22.182h-.004c1.117 0 2.163.437 2.953 1.228.872.876 1.306 4.101 1.272 7.188-.121.002-.244.002-.37.002-4.098 0-6.234-.684-6.815-1.268a4.205 4.205 0 0 1 0-5.922A4.175 4.175 0 0 1 37 22.182zm15.997.044c1.084 0 2.167.395 2.956 1.186a4.165 4.165 0 0 1 1.222 2.963 4.16 4.16 0 0 1-1.222 2.96c-.585.585-2.717 1.267-6.814 1.267l-.37-.002c-.026-2.873.331-6.25 1.272-7.188.79-.79 1.873-1.186 2.956-1.186zM24.253 35.933H39.5V39.2H24.253v-3.266zm17.375 0h6.74V39.2h-6.74v-3.266zm8.868 0h15.247V39.2H50.496v-3.266zm-23.304 7.53H39.5v24.221H27.192V43.462zm14.436 0h6.74v24.221h-6.74V43.462zm8.868 0h12.309v24.221H50.496V43.462z"/>
        <circle cx="45" cy="45" r="45" stroke="#FC0" stroke-width="3"/>
    </g>
</svg>
