<svg xmlns="http://www.w3.org/2000/svg" width="94" height="94" viewBox="0 0 94 94">
    <g fill="none" fill-rule="evenodd" transform="translate(2 2)">
        <circle cx="45" cy="45" r="45" stroke="#FC0" stroke-width="3"/>
        <path fill="#FC0" fill-rule="nonzero" d="M45.431 23.541c14.72-.214 19.589 23.582 3.29 24.42 6.069-3.235 7.012-10.664 3.184-15.48-2.74-.936-1.467-1.656-4.183-4.372.433 1.483.31 2.188-1.735 3.055-13.03 2.735-8.43 15.907-2.77 16.828-13.593 3.568-17.09-24.17 2.214-24.45zm20.505 40.637c-.454-8.459-7.619-9.342-14.483-11.083-2.109 4.235-3.325 6.207-5.93 9.943-2.532-3.672-3.972-6.01-5.954-10.253-6.786 2.244-14.82 3.409-14.991 11.393 1.61 4.17 39.33 3.586 41.358 0z"/>
    </g>
</svg>
