<svg xmlns="http://www.w3.org/2000/svg" width="24" height="22" viewBox="0 0 24 22">
    <path fill="#FC0" fill-rule="nonzero" d="M11.757 2.002c.09.09.238.09.328 0l.072-.072a6.585 6.585 0 0 1 9.314 0l.233.232a7.292 7.292 0 0 1 .003 10.317l-7.956 7.957a2.59 2.59 0 0 1-3.66 0l-7.956-7.957a7.297 7.297 0 0 1 .003-10.317l.233-.233a6.586 6.586 0 0 1 9.314 0l.072.073zM4.034 3.593l-.233.233a4.944 4.944 0 0 0-.002 6.99l7.956 7.956c.09.09.242.09.332 0l7.956-7.956a4.94 4.94 0 0 0-.003-6.99l-.233-.233a4.232 4.232 0 0 0-5.986 0l-.072.072a2.586 2.586 0 0 1-3.656 0l-.072-.071a4.233 4.233 0 0 0-5.987-.001z"/>
</svg>
