<svg xmlns="http://www.w3.org/2000/svg" width="26" height="28" viewBox="0 0 26 28">
    <g fill="#FC0" fill-rule="nonzero">
        <path d="M3.25 24.75v-2.442a6.155 6.155 0 0 1 6.138-6.135 1.25 1.25 0 1 0-.007-2.5A8.655 8.655 0 0 0 .75 22.304V26c0 .69.56 1.25 1.25 1.25h22.154c.69 0 1.25-.56 1.25-1.25v-3.692a8.656 8.656 0 0 0-8.631-8.635 1.25 1.25 0 0 0-.007 2.5 6.155 6.155 0 0 1 6.138 6.138v2.439H3.25z"/>
        <path d="M13.077 17.096a8.173 8.173 0 1 1 0-16.346 8.173 8.173 0 0 1 0 16.346zm0-2.5a5.673 5.673 0 1 0 0-11.346 5.673 5.673 0 0 0 0 11.346z"/>
    </g>
</svg>
