<svg xmlns="http://www.w3.org/2000/svg" width="219" height="66" viewBox="0 0 219 66">
    <g fill="none" fill-rule="evenodd">
        <path fill="#FC0" d="M39.463 1.039c-.519 1.246-1.454 3.738-2.336 7.27C34.946 16.823 32.4 31.05 32.4 37.645c0 2.337.312 2.544.78 4.258-3.583 0-4.259-1.558-4.259-5.816 0-8.256 2.493-17.81 5.193-27.988-4.985 6.387-11.787 22.796-13.916 29.13-.415.156-.467.208-.779.208-1.87 0-2.285-2.336-2.285-6.335 0-5.711.831-16.564.831-22.068 0-1.35-.052-2.18-.104-2.908C6.802 31.934 3.791 41.904 0 41.904.83 40.034 8.048 24.3 16.46 5.4c.208-.467.52-1.35.52-2.129 0-.779-.312-1.35-1.766-1.35-4.414 0-6.439 5.245-6.439 9.45 0 .676.052 1.143.104 1.61-1.973 0-2.752-2.544-2.752-4.258C6.127 4.154 11.683 0 16.253 0c3.375 0 5.244 2.233 5.244 11.631 0 6.491-.883 14.643-1.09 20.459C23.159 21.497 32.869 6.23 35.205 2.804 36.14 1.454 36.66.675 37.802.675c.415 0 .986.104 1.661.364zm6.283 18.745c.623 0 1.143.415 1.143 1.142 0 1.714-5.4 7.996-5.4 12.877 0 2.493.83 3.116 2.544 3.116 2.336 0 5.037-2.025 7.996-7.945l.468.52c-2.025 5.971-6.18 9.242-10.23 9.242-2.7 0-3.998-1.92-3.998-4.361 0-3.947 3.946-14.591 7.477-14.591zm2.752-4.83c1.662 0 3.376-1.505 3.376-2.803 0-1.195-.675-1.61-1.714-1.61-1.662 0-3.79 1.246-3.79 2.7 0 1.194.986 1.714 2.128 1.714zm1.558 18.278c0-4.102 2.752-4.05 3.323-4.673 2.077-2.285 3.843-4.777 5.141-7.53v-.622c0-2.545 1.039-3.531 2.025-3.531.571 0 .83.311.83.675 0 .363-.31 1.09-.31 2.285 0 3.427 2.7 7.736 2.7 12.514 0 .934-.104 1.765-.312 2.544 2.388-.415 4.517-1.973 6.543-5.868l.467.52c-1.298 3.79-4.154 5.711-7.27 6.179-1.09 2.96-3.686 4.31-6.646 4.31-4.881 0-6.49-3.687-6.49-6.803zm10.333-.83c0-3.272-1.09-6.543-1.61-9.399-1.61 2.648-3.478 5.193-5.036 6.75a9.275 9.275 0 0 0 6.439 5.089c.103-.675.207-1.402.207-2.44zm-3.738 5.815c.83 0 2.492-.26 3.271-2.544-2.908-.571-5.296-2.545-6.387-4.31-.83.052-1.142.727-1.142 1.817 0 2.493 1.558 5.037 4.258 5.037zm11.371-4.985c0-4.102 2.752-4.05 3.324-4.673 2.077-2.285 3.842-4.777 5.14-7.53v-.622c0-2.545 1.039-3.531 2.025-3.531.571 0 .831.311.831.675 0 .363-.311 1.09-.311 2.285 0 3.427 2.7 7.736 2.7 12.514 0 .934-.104 1.765-.312 2.544 2.389-.415 4.518-1.973 6.543-5.868l.467.52c-1.298 3.79-4.154 5.711-7.27 6.179-1.09 2.96-3.686 4.31-6.646 4.31-4.881 0-6.49-3.687-6.49-6.803zm10.334-.83c0-3.272-1.09-6.543-1.61-9.399-1.61 2.648-3.48 5.193-5.037 6.75a9.275 9.275 0 0 0 6.439 5.089c.104-.675.208-1.402.208-2.44zm-3.74 5.815c.832 0 2.493-.26 3.272-2.544-2.908-.571-5.296-2.545-6.387-4.31-.83.052-1.142.727-1.142 1.817 0 2.493 1.558 5.037 4.258 5.037zM102.71 4.57C102.969 1.09 108.213 0 115.379 0c7.113 0 11.683 1.09 16.72 1.142-2.39 2.13-5.505 2.44-8.88 2.44-1.194 0-2.44-.051-3.687-.051-2.232 5.556-5.244 14.176-8.152 24.768-1.506 5.504-2.596 9.035-2.596 12.462 0 .364 0 .78.052 1.143-3.116 0-4.102-1.506-4.102-3.687 0-2.025 1.038-5.037 1.92-7.581 2.338-6.802 6.907-19.212 10.594-27.105-7.218.104-10.022.26-14.54 1.038zm18.745 27.106l-.468-.883a75.314 75.314 0 0 0 4.206-9.866 1.72 1.72 0 0 1-.519-1.246c0-2.077 1.61-3.531 2.18-3.531.728 0 .728.883.728 1.246 0 .364-.571 1.714-.571 1.921 0 1.922 5.296 2.804 5.296 7.218 0 3.167-2.596 6.594-2.596 8.775 0 1.247.727 1.558 1.558 1.558 3.27 0 7.529-4.725 8.827-7.737l.675.52c-1.973 4.413-6.439 9.086-10.852 9.086-2.337 0-3.791-1.35-3.791-3.375 0-3.063 2.856-6.958 2.856-9.71 0-2.233-1.61-3.011-2.908-3.946-1.61 4.102-3.53 8.1-4.621 9.97zm32.142-5.297c.623.104 2.077.52 2.077 1.298 0 1.195-3.012 4.725-3.012 7.218 0 1.038.52 2.285 1.765 2.285 1.87 0 5.193-2.7 8.308-8.205l.52.52c-2.181 5.608-6.595 9.45-10.282 9.45-2.544 0-3.738-1.817-3.738-3.635 0-.415.052-.934.156-1.506-3.012 3.999-5.297 6.024-7.841 6.024-2.181 0-3.843-1.402-3.843-4.31 0-6.18 7.633-15.941 14.384-15.941 2.7 0 4.725 1.558 4.725 3.894 0 1.714-1.039 2.233-2.544 2.233.155-.571.26-1.246.26-1.817 0-1.558-.676-2.908-2.545-2.908-4.881 0-10.697 9.658-10.697 14.695 0 1.402.468 2.025 1.402 2.025 3.22 0 8.36-7.581 10.905-11.32zm30.272 2.804l.675.52c-1.506 3.478-3.479 4.361-5.14 4.361-2.285 0-3.895-1.662-4.362-5.037-2.545 5.037-6.595 10.385-9.918 10.385-2.18 0-2.856-2.336-2.856-5.711 0-.104.052-1.974.312-6.803.103-1.869.155-2.44 1.661-2.44 1.195 0 1.35.363 1.35 1.662 0 2.284-.467 5.66-.467 8.36 0 2.025.26 2.907 1.194 2.907 2.545 0 6.387-6.542 8.568-11.371.156-4.674 1.09-5.868 2.389-5.868 1.298 0 1.869 1.246 1.869 1.973 0 1.35-1.818 2.337-1.818 6.958 0 1.714.26 3.947 2.441 3.947 1.454 0 2.752-.987 4.102-3.843zm14.747-7.321c0 5.296-6.958 9.502-12.878 10.073a8.554 8.554 0 0 0-.207 1.87c0 2.128.882 4.361 4.102 4.361 4.413 0 9.035-4.206 11.631-9.19l.623.467c-2.804 6.23-8.204 10.23-13.345 10.23-4.206 0-6.335-2.65-6.335-6.024 0-6.18 7.062-14.955 13.19-14.955 1.61 0 3.219.623 3.219 3.168zm-3.375-1.558c-3.323 0-7.841 5.712-9.243 10.645 3.687-1.299 10.333-4.985 10.333-9.45 0-.78-.208-1.195-1.09-1.195zm23.055-16.46c0 4.62-6.231 17.914-13.813 24.197-.415 1.87-.675 3.686-.675 5.244 0 2.7.78 3.998 2.285 3.998 2.752 0 5.66-4.257 7.477-8.308l.78.416c-2.753 5.92-6.024 9.554-9.763 9.554-2.96 0-4.154-2.285-4.154-5.348 0-9.97 12.618-33.596 16.15-33.596 1.09 0 1.713 2.389 1.713 3.842zm-1.974.363c-1.401 0-8.515 12.047-11.371 22.068 6.023-6.075 11.735-17.758 11.735-21.237 0-.675-.208-.831-.364-.831zM62 53.066h4.31c.752 0 1.41.08 1.973.241.563.161 1.033.387 1.409.676.375.289.658.632.85 1.028.19.397.285.83.285 1.302 0 .387-.073.75-.219 1.086a2.97 2.97 0 0 1-.621.913c-.269.27-.59.506-.966.706-.376.2-.79.353-1.243.46l4.534 6.047h-2.424l-4.328-5.859h-1.467v5.859H62V53.066zm2.093 5.974H65.3c.471 0 .905-.062 1.302-.187.396-.126.74-.303 1.033-.533.292-.23.52-.508.684-.836.164-.328.246-.694.246-1.1 0-.37-.066-.71-.197-1.024a2.375 2.375 0 0 0-1.377-1.328 2.888 2.888 0 0 0-1.056-.188h-1.842v5.196zm11.242-3.12v6.832c0 .239.055.464.166.675.11.212.26.395.451.55.191.155.415.28.671.372.256.092.53.138.823.138.19 0 .393-.04.608-.12.215-.081.425-.193.63-.336.206-.143.4-.309.582-.496.182-.188.332-.39.452-.604v-7.012h1.905v9.606h-1.905v-1.798a3.904 3.904 0 0 1-.631.778 4.838 4.838 0 0 1-.823.64c-.295.181-.599.324-.912.429-.313.104-.61.156-.89.156-.417 0-.81-.079-1.18-.237a3.12 3.12 0 0 1-.966-.64 2.977 2.977 0 0 1-.649-.943 2.855 2.855 0 0 1-.237-1.158V55.92h1.905zm11.591 9.149c.263 0 .504-.04.725-.121.22-.08.41-.187.568-.318.158-.13.281-.283.37-.456.09-.173.135-.349.135-.528a1.34 1.34 0 0 0-.22-.764 2.368 2.368 0 0 0-.58-.59 4.86 4.86 0 0 0-.828-.479c-.31-.143-.624-.29-.943-.443a14.933 14.933 0 0 1-.944-.492 4.206 4.206 0 0 1-.827-.608 2.738 2.738 0 0 1-.582-.796c-.146-.3-.219-.657-.219-1.069 0-.387.082-.745.246-1.073.164-.328.39-.611.68-.85.29-.238.635-.424 1.037-.558a4.15 4.15 0 0 1 1.32-.202c.316 0 .614.023.894.067.28.045.553.132.818.26.266.128.531.308.796.54.266.233.541.537.828.913l-.698.626c-.364-.596-.77-1.04-1.22-1.332a2.606 2.606 0 0 0-1.445-.439c-.269 0-.516.035-.743.103a1.95 1.95 0 0 0-.58.277 1.31 1.31 0 0 0-.377.407.97.97 0 0 0-.134.492c0 .286.08.537.242.752.16.214.372.408.635.58.262.174.56.333.894.48l1.029.447c.352.152.694.314 1.028.487.334.173.632.374.895.604.262.23.474.495.635.796.16.3.241.651.241 1.05 0 .406-.076.786-.228 1.14-.152.356-.38.663-.684.922-.304.26-.687.464-1.15.613-.462.149-1 .223-1.614.223-.28 0-.568-.022-.863-.067a3.694 3.694 0 0 1-.894-.26 4.14 4.14 0 0 1-.904-.54 4.874 4.874 0 0 1-.88-.912l.778-.707c.232.328.456.607.67.836.215.23.431.418.649.564.217.146.444.253.68.322.235.068.49.103.764.103zm8.667 0c.262 0 .504-.04.724-.121.22-.08.41-.187.568-.318.158-.13.282-.283.371-.456.09-.173.134-.349.134-.528a1.34 1.34 0 0 0-.219-.764 2.368 2.368 0 0 0-.581-.59 4.86 4.86 0 0 0-.827-.479c-.31-.143-.625-.29-.944-.443a14.933 14.933 0 0 1-.943-.492 4.206 4.206 0 0 1-.828-.608 2.738 2.738 0 0 1-.581-.796c-.146-.3-.22-.657-.22-1.069 0-.387.083-.745.247-1.073.164-.328.39-.611.68-.85.289-.238.634-.424 1.037-.558a4.15 4.15 0 0 1 1.32-.202c.315 0 .613.023.893.067.28.045.554.132.819.26.265.128.53.308.796.54.265.233.54.537.827.913l-.697.626c-.364-.596-.771-1.04-1.221-1.332a2.606 2.606 0 0 0-1.445-.439c-.268 0-.515.035-.742.103a1.95 1.95 0 0 0-.581.277 1.31 1.31 0 0 0-.376.407.97.97 0 0 0-.134.492c0 .286.08.537.241.752.161.214.373.408.635.58.263.174.56.333.895.48l1.028.447c.352.152.695.314 1.029.487.334.173.632.374.894.604.262.23.474.495.635.796.161.3.242.651.242 1.05 0 .406-.076.786-.228 1.14-.153.356-.38.663-.685.922-.304.26-.687.464-1.149.613-.462.149-1 .223-1.614.223-.28 0-.568-.022-.863-.067a3.694 3.694 0 0 1-.895-.26 4.14 4.14 0 0 1-.903-.54 4.874 4.874 0 0 1-.881-.912l.778-.707c.233.328.456.607.67.836.216.23.432.418.65.564.217.146.444.253.679.322.236.068.49.103.765.103zM102.21 51a1.192 1.192 0 0 1 .774.282c.098.086.177.188.237.304a.802.802 0 0 1 0 .742c-.06.116-.139.218-.237.304a1.192 1.192 0 0 1-.774.282 1.156 1.156 0 0 1-.765-.282 1.022 1.022 0 0 1-.237-.304.802.802 0 0 1-.089-.371c0-.131.03-.255.09-.371.059-.116.138-.218.236-.304a1.156 1.156 0 0 1 .765-.282zm-.93 5.268l1.342-.546h.554v9.803h-1.896v-9.257zm11.296 9.257h-1.914V64.21c-.227.173-.449.349-.666.528a5.51 5.51 0 0 1-.707.492c-.253.149-.534.27-.84.362a3.718 3.718 0 0 1-1.07.138c-.375 0-.715-.06-1.019-.183a2.296 2.296 0 0 1-.778-.505 2.172 2.172 0 0 1-.492-.76 2.6 2.6 0 0 1-.17-.949c0-.411.082-.782.246-1.113.164-.331.388-.628.67-.89.284-.262.615-.495.994-.698.378-.202.78-.384 1.202-.545.424-.161.86-.304 1.31-.43.45-.125.89-.24 1.32-.348v-.6c0-.435-.043-.803-.13-1.104a1.886 1.886 0 0 0-.37-.729 1.363 1.363 0 0 0-.587-.398c-.23-.08-.487-.12-.773-.12-.322 0-.585.041-.787.125a1.114 1.114 0 0 0-.715.8 2.297 2.297 0 0 0-.064.532c0 .167-.013.328-.04.483a1.14 1.14 0 0 1-.147.407.823.823 0 0 1-.291.282.92.92 0 0 1-.47.107.956.956 0 0 1-.406-.085.954.954 0 0 1-.318-.237 1.06 1.06 0 0 1-.206-.358 1.353 1.353 0 0 1-.071-.447c0-.316.104-.611.313-.885a2.73 2.73 0 0 1 .84-.711 4.84 4.84 0 0 1 1.235-.474 6.175 6.175 0 0 1 1.484-.175c.632 0 1.166.061 1.601.184.436.122.787.293 1.056.514.268.22.462.489.581.805.12.316.179.665.179 1.046v7.254zm-1.914-5.6c-.274.09-.559.192-.854.305-.295.113-.585.24-.868.38a8.48 8.48 0 0 0-.81.456 4.44 4.44 0 0 0-.674.523 2.404 2.404 0 0 0-.461.59 1.35 1.35 0 0 0-.17.654c0 .232.043.454.13.666.086.212.201.396.344.554.143.158.309.284.496.376.188.092.384.139.586.139.215 0 .42-.029.613-.085.194-.057.382-.133.563-.228.182-.096.364-.208.546-.336.182-.128.368-.264.559-.407v-3.586zm9.525 5.6v-.331c.924-.877 1.725-1.649 2.401-2.317.677-.668 1.251-1.26 1.722-1.775.471-.516.854-.966 1.15-1.35.295-.385.524-.73.688-1.034.164-.304.276-.582.335-.836a3.345 3.345 0 0 0-.085-1.838 2.792 2.792 0 0 0-.514-.92 2.5 2.5 0 0 0-.845-.645c-.337-.16-.729-.241-1.176-.241-.346 0-.686.06-1.02.179-.334.119-.638.28-.912.482a2.903 2.903 0 0 0-.689.716 2.238 2.238 0 0 0-.357.876h-.367a3.67 3.67 0 0 1 .402-1.444c.233-.45.53-.844.89-1.18a4.12 4.12 0 0 1 1.239-.797c.465-.193.954-.29 1.467-.29.644 0 1.21.092 1.7.277.488.185.895.434 1.22.747.325.313.57.677.738 1.091.167.414.25.851.25 1.31 0 .483-.106.97-.317 1.463-.212.491-.556 1.042-1.033 1.65-.477.608-1.097 1.3-1.86 2.075-.764.775-1.697 1.681-2.8 2.719h6.663l-.93 1.413h-7.96zm15.017.295a3.7 3.7 0 0 1-1.883-.488 4.465 4.465 0 0 1-1.449-1.364c-.402-.584-.714-1.28-.935-2.088-.22-.808-.33-1.695-.33-2.66 0-.883.11-1.715.33-2.496.221-.781.533-1.464.935-2.048a4.707 4.707 0 0 1 1.449-1.386 3.575 3.575 0 0 1 1.883-.51c.691 0 1.319.17 1.882.51.564.34 1.047.802 1.45 1.386.402.584.713 1.267.934 2.048.22.781.33 1.613.33 2.495 0 .966-.11 1.853-.33 2.661-.22.808-.532 1.504-.935 2.088a4.465 4.465 0 0 1-1.449 1.364 3.7 3.7 0 0 1-1.882.488zm0-.626c.28 0 .536-.075.769-.224.232-.149.442-.358.63-.626s.35-.587.488-.957c.137-.37.252-.775.344-1.216.092-.441.161-.913.206-1.413.044-.501.067-1.014.067-1.539 0-.787-.05-1.532-.152-2.236a8.393 8.393 0 0 0-.465-1.855c-.209-.534-.47-.956-.783-1.266a1.519 1.519 0 0 0-1.104-.465c-.424 0-.792.155-1.105.465-.313.31-.572.732-.778 1.266a8.571 8.571 0 0 0-.46 1.855 15.687 15.687 0 0 0-.153 2.236c0 .525.023 1.038.067 1.539.045.5.114.972.206 1.413.092.441.207.846.344 1.216.138.37.299.689.483.957.185.268.394.477.626.626.233.15.49.224.77.224zm8.5.33V54.98h-2.093v-.528c.763-.006 1.373-.153 1.829-.442.456-.29.81-.7 1.06-1.23h.974v12.745h-1.77zm12.82-12.127l-4.553 12.423h-1.198l4.096-11.216h-6.565l.707-1.538h7.512v.33z"/>
        <path stroke="#FC0" stroke-linecap="square" d="M54.51 59.5h-54M215.524 59.5h-52"/>
    </g>
</svg>
