<svg xmlns="http://www.w3.org/2000/svg" width="217" height="61" viewBox="0 0 217 61">
    <g fill="none" fill-rule="evenodd">
        <path fill="#FC0" d="M123.078 23.997c-.905.686-2.298 1.483-3.293 1.483-.981 0-1.636-.582-1.2-2.69l3.853-17.847c2.581-.69 3.017-4.143.91-4.943-1.019.727-2.69 1.054-4.29 1.054-3.998 0-12.976-.436-16.865-.436-3.78 0-10.505 1.308-10.505 6.979 0 1.89 1.2 3.816 4.58 2.908-.4-.655-.509-1.273-.509-1.89 0-3.09 2.072-4.908 4.29-5.344l-5.708 25.19c.4.29 1.09.472 1.927.472 1.345 0 2.762-.618 3.126-2.326l4.98-23.336c1.562.11 3.162.291 4.725.473L103.5 28.46c.4.291 1.09.473 1.927.473 1.344 0 2.762-.618 3.125-2.326l4.762-22.354c1.672.218 3.235.436 4.689.581l-3.998 18.828c-.909 4.253 1.272 5.27 3.453 5.27 1.89 0 3.781-1.315 5.672-3.002.267 1.719 1.212 2.967 3.342 2.967 1.817 0 3.453-1.2 4.87-2.98-.29.98-.508 1.89-.763 2.762-6.033 2.69-10.977 4.87-10.977 9.486 0 3.017 2.363 4.471 4.398 4.471 6.47 0 9.16-7.16 10.832-13.921a35.693 35.693 0 0 0 4.491-2.527c.086-.405.29-1.475.454-2.135-1.223.897-2.823 1.78-4.472 2.59.109-.473.218-.981.327-1.49l3.09-14.394c-.437-.29-1.055-.473-1.71-.473-1.308 0-2.689.618-3.052 2.29l-2.363 10.868c-.836.8-1.745 1.309-2.799 1.309-1.2 0-1.49-.872-1.236-2l2.254-10.467c.327-1.382-.436-2-1.745-2-1.526 0-2.835.764-4.07 1.745-.728.582-.473 1.709 0 2 .326-.291.545-.437.726-.437.327 0 .51.327.364.909l-1.709 7.451a15.134 15.134 0 0 0-.305 2.043zM68.28 22.368c-1.69 1.85-4.693 3.403-7.088 3.403-1.963 0-3.49-1.054-3.49-3.926 0-5.234 2.363-9.123 4.399-9.123.909 0 1.345.363 1.345 1.054 0 .509-.182 1.49-.582 2.362.4.364.982.51 1.454.51 1.345 0 2.544-.946 2.544-2.981 0-2.363-1.453-3.526-4.398-3.526-5.452 0-9.268 6.688-9.268 12.286 0 .535.04 1.035.115 1.501-.928.812-2.319 1.552-3.532 1.552-.945 0-1.527-.654-1.09-2.69l2.544-12.031c-.436-.29-1.054-.473-1.709-.473-1.308 0-2.69.618-3.053 2.29l-2.18 10.287c-.982 1.163-2.072 1.89-3.345 1.89-1.09 0-1.563-.654-1.235-2.145l2.217-10.322c.327-1.382-.436-2-1.745-2-1.527 0-2.835.764-4.07 1.745-.728.582-.473 1.709 0 2 .326-.291.544-.437.726-.437.327 0 .509.327.364.909l-1.709 7.451c-.14.62-.249 1.319-.285 2.028-.905.689-2.312 1.498-3.313 1.498-.982 0-1.49-.545-1.2-2.69l2.98-20.936c-.435-.291-1.344-.473-1.998-.473-1.345 0-2.472.69-3.126 2.326l-8.433 19.01L21.428 3.38h.036c.836 0 1.272-.727 1.272-1.417 0-.364-.145-.727-.509-.945-1.563.872-4.652-.727-7.67-.727-4.288 0-6.033 2.617-6.033 4.907 0 1.817 1.09 3.453 2.944 3.453a3.62 3.62 0 0 0 1.563-.364c-.436-.509-.727-1.308-.727-2.108 0-1.708 1.2-3.562 4.507-3.562h.182c-5.307 17.738-8.978 22.209-11.85 23.3v-.328c0-.836.146-2.326.764-3.744a2.967 2.967 0 0 0-1.817-.618c-1.636 0-3.09.618-3.09 2.726 0 3.235 1.309 4.98 3.126 4.98 4.325 0 8.142-5.161 13.049-20.827l-.182 4.252-1.308 16.102c.436.291 1.09.473 1.744.473 1.345 0 2.436-.473 3.09-2.145l7.924-18.61-2.436 16.43c-.509 3.344 1.636 4.325 3.635 4.325 1.908 0 3.846-1.25 5.679-3.024.321 1.67 1.313 3.024 3.59 3.024 2.072 0 3.853-1.745 5.307-4.107-.182 3.198 1.599 4.107 3.38 4.107 1.91 0 4.438-1.582 6.147-3.442.97 2.347 3.124 3.442 5.63 3.442 3.028 0 6.565-1.609 9.092-4.388.62 3.172 2.728 4.388 5.52 4.388 3.198 0 6.542-2.254 6.542-4.253 0-.618-.4-.981-1.09-.981-.618 1.308-1.781 2.072-3.38 2.072-1.854 0-3.272-1.2-3.272-3.926 0-5.234 2.363-9.123 4.398-9.123.909 0 1.345.363 1.345 1.054 0 .509-.182 1.49-.581 2.362.4.364.98.51 1.453.51 1.345 0 2.545-.946 2.545-2.981 0-2.363-1.454-3.526-4.398-3.526-5.433 0-9.242 6.642-9.269 12.227zm55.758 17.033c-.473 0-1.49-.436-1.49-1.708 0-2.763 2.98-4.507 7.305-6.616-1.853 5.852-3.307 8.324-5.815 8.324zm11.995 2.472l5.742-27.37c.146-.582-.036-.909-.363-.909-.182 0-.4.146-.727.436-.472-.29-.727-1.417 0-1.999 1.236-.981 2.544-1.745 4.071-1.745 1.309 0 2.072.618 1.745 2l-.182.872c1.418-1.745 3.126-2.872 4.943-2.872 3.199 0 4.616 2.69 4.616 5.998 0 5.452-3.961 12.649-10.177 12.649a3.92 3.92 0 0 1-2.508-.945l-2.508 12.067c-.363 1.672-1.636 2.29-2.944 2.29-.654 0-1.272-.181-1.708-.472zm13.23-27.952c-1.09 0-2.399.836-3.598 2.327l-2 9.486c.655.364 1.236.4 1.818.4 3.707 0 5.925-4.943 5.925-8.542 0-2.544-.909-3.67-2.145-3.67zm8.106 8.033l1.708-7.451c.145-.582-.036-.909-.363-.909-.182 0-.4.146-.727.436-.473-.29-.727-1.417 0-1.999 1.235-.981 2.544-1.745 4.07-1.745 1.31 0 2.036.618 1.745 2l-2.217 10.322c-.327 1.49.145 2.145 1.236 2.145 1.272 0 2.363-.727 3.344-1.89l2.18-10.287c.364-1.672 1.745-2.29 3.054-2.29.654 0 1.272.182 1.708.473l-2.544 12.031c-.4 1.854.073 2.654.8 2.654.654 0 1.49-.437 2.035-1.745.69 0 1.09.363 1.09.981 0 2.545-2.98 4.253-5.015 4.253-1.781 0-3.563-.909-3.38-4.107-1.455 2.362-3.236 4.107-5.308 4.107-4.034 0-4.034-4.253-3.416-6.979zm12.794 16.211c0-4.616 5.525-8.142 10.396-10.068.109-.763.218-1.454.218-2 0-1.998-1.236-3.416-3.344-3.416-.182-1.127.4-2.108 1.526-2.108 2.363 0 4.326-2.98 4.326-5.234 0-1.745-1.054-2.58-2.4-2.58-.472 0-.98.108-1.453.29-.073.218-.073.436-.073.727 0 .509.182 1.49.582 2.362-.4.364-.982.51-1.454.51-1.309 0-2.181-1.164-2.181-2.509 0-1.89 1.708-4.107 6.252-4.107 3.126 0 5.016 2.036 5.016 4.434 0 3.599-2.363 6.252-5.998 7.27 2.181.69 3.38 2.435 3.38 4.544a17.958 17.958 0 0 0 2.262-1.312c.027.736.068 1.312.21 1.673a37.406 37.406 0 0 1-2.69 1.674c-.508 3.162-2.035 7.597-3.416 9.923-1.636 2.69-3.817 4.398-6.87 4.398-2.217 0-4.289-1.454-4.289-4.47zm7.524-1.38c-.981 1.671-2.144 2.616-3.562 2.616-.472 0-1.49-.436-1.49-1.708 0-2.58 3.344-5.525 7.378-7.124-.654 2.362-1.562 4.87-2.326 6.215zm34.095-11.305c1.344 0 2.907-.909 3.816-1.818.4.182.618.51.618.873 0 .254-.109.545-.327.8-1.708 1.926-4.326 3.598-6.288 3.598-1.818 0-4.108-.945-3.38-5.707l.944-6.215-6.142 11.777c-1.709.436-2.981-.037-3.054-1.745l-.254-10.105c-1.054 3.526-2.072 5.998-3.126 7.779-1.636 2.835-3.417 4.18-4.798 4.216-1.49.036-2.58-1.418-2.58-4.071 0-1.745 1.199-2.254 2.544-2.254.436 0 1.017.182 1.49.51a7.028 7.028 0 0 0-.618 2.834c1.89-1.163 3.708-3.053 6.325-12.794-1.854.218-3.199.727-4.18 1.817-.51-.581-.764-1.235-.764-1.853 0-2.254 1.963-3.126 4.035-3.126 1.854 0 4.362.181 5.38.581l.472 12.359 5.634-10.25c.981-1.782 1.78-2.4 3.09-2.4.654 0 1.272.182 1.744.473l-1.672 12.031c-.29 2.036.146 2.69 1.09 2.69z"/>
        <path stroke="#FC0" stroke-linecap="square" d="M53 54.5H1M215.524 54.5h-52"/>
        <path fill="#FAC700" d="M60 60.008V47h3.542c1.57 0 2.698.265 3.384.795.685.53 1.028 1.402 1.028 2.615 0 1.383-.469 2.467-1.406 3.252-.938.785-2.238 1.178-3.902 1.178h-.818v5.168H60zm1.828-6.566h.747c1.096 0 1.943-.252 2.54-.755.598-.504.897-1.216.897-2.136 0-.78-.235-1.336-.703-1.67-.47-.334-1.251-.501-2.347-.501h-1.134v5.062zm11.91 6.786c-1.366 0-2.456-.453-3.27-1.358-.815-.906-1.222-2.117-1.222-3.635 0-1.535.409-2.75 1.226-3.643.818-.893 1.926-1.34 3.327-1.34 1.4 0 2.51.447 3.326 1.34.818.894 1.227 2.102 1.227 3.626 0 1.558-.41 2.783-1.23 3.674-.821.89-1.95 1.336-3.385 1.336zm.026-1.301c1.834 0 2.75-1.237 2.75-3.71 0-2.443-.905-3.664-2.715-3.664-1.805 0-2.707 1.227-2.707 3.682 0 2.461.89 3.692 2.672 3.692zm11.021 1.3c-1.289 0-2.358-.477-3.208-1.432-.85-.955-1.274-2.16-1.274-3.612 0-1.553.42-2.763 1.261-3.63.84-.867 2.014-1.301 3.52-1.301.744 0 1.576.102 2.496.308v1.45c-.978-.287-1.775-.43-2.39-.43-.885 0-1.596.332-2.132.997s-.804 1.55-.804 2.658c0 1.073.275 1.94.826 2.602.55.662 1.272.993 2.162.993.791 0 1.606-.202 2.444-.606v1.494c-1.12.34-2.086.51-2.9.51zm9.22 0c-1.29 0-2.359-.477-3.208-1.432-.85-.955-1.275-2.16-1.275-3.612 0-1.553.42-2.763 1.262-3.63.84-.867 2.014-1.301 3.52-1.301.744 0 1.576.102 2.496.308v1.45c-.979-.287-1.776-.43-2.39-.43-.886 0-1.596.332-2.132.997s-.804 1.55-.804 2.658c0 1.073.275 1.94.826 2.602.55.662 1.271.993 2.162.993.79 0 1.605-.202 2.443-.606v1.494c-1.119.34-2.086.51-2.9.51zm5.493-.22v-9.544h1.626v7.224l4.447-7.224h1.732v9.545h-1.626v-7.225l-4.439 7.225h-1.74zm15.478-3.849h-.985c-.41.405-.838.99-1.283 1.758l-.554.967c-.24.428-.448.803-.624 1.125h-1.942c.41-.621.78-1.242 1.107-1.863l.229-.431c.55-1.049 1.09-1.726 1.617-2.03-.598-.217-1.074-.56-1.428-1.029a2.532 2.532 0 0 1-.532-1.564c0-1.037.49-1.79 1.468-2.259.498-.246 1.415-.37 2.75-.37h1.917v9.546h-1.74v-3.85zm0-4.394h-.484c-.691 0-1.208.126-1.551.378-.343.252-.514.63-.514 1.133 0 .528.18.923.54 1.187.36.264.901.395 1.622.395h.387v-3.093zm6.545 8.244v-.325c.908-.862 1.694-1.62 2.36-2.277a47.63 47.63 0 0 0 1.691-1.744c.463-.507.84-.95 1.13-1.328.29-.377.515-.716.676-1.015.162-.298.271-.572.33-.821a3.288 3.288 0 0 0-.083-1.806 2.743 2.743 0 0 0-.506-.906 2.457 2.457 0 0 0-.83-.633c-.331-.158-.717-.237-1.156-.237-.34 0-.674.059-1.002.176a3.451 3.451 0 0 0-.897.474c-.27.2-.495.434-.676.704a2.2 2.2 0 0 0-.352.86h-.36c.035-.503.167-.976.395-1.419.229-.442.52-.829.875-1.16a4.05 4.05 0 0 1 1.217-.782 3.71 3.71 0 0 1 1.441-.286c.633 0 1.19.091 1.67.273.48.182.88.426 1.2.734.32.307.561.665.725 1.072.164.407.246.836.246 1.288 0 .474-.104.953-.312 1.437-.208.483-.546 1.024-1.015 1.621a24.865 24.865 0 0 1-1.828 2.04c-.75.761-1.667 1.652-2.751 2.671h6.548l-.914 1.389h-7.822zm14.756.29c-.68 0-1.296-.16-1.85-.48a4.388 4.388 0 0 1-1.424-1.34c-.395-.574-.701-1.258-.918-2.052a9.908 9.908 0 0 1-.325-2.614c0-.868.108-1.685.325-2.453a6.756 6.756 0 0 1 .918-2.012 4.626 4.626 0 0 1 1.424-1.363 3.513 3.513 0 0 1 1.85-.5c.68 0 1.297.166 1.85.5a4.626 4.626 0 0 1 1.424 1.363c.396.574.702 1.245.919 2.012.217.768.325 1.585.325 2.453 0 .949-.108 1.82-.325 2.614-.217.794-.523 1.478-.919 2.053a4.388 4.388 0 0 1-1.424 1.34c-.553.32-1.17.479-1.85.479zm0-.615c.276 0 .528-.074.756-.22.229-.147.435-.352.62-.615.184-.264.344-.577.479-.94.135-.364.247-.762.338-1.196.091-.434.158-.897.202-1.389.044-.492.066-.996.066-1.511 0-.774-.05-1.506-.15-2.198-.099-.691-.251-1.3-.456-1.823-.205-.525-.462-.94-.77-1.244a1.492 1.492 0 0 0-1.085-.457c-.416 0-.777.152-1.085.457-.308.305-.563.72-.765 1.244a8.423 8.423 0 0 0-.452 1.823c-.1.692-.15 1.424-.15 2.198 0 .515.022 1.02.066 1.511.044.492.111.955.202 1.389.091.434.204.832.339 1.195.134.364.293.677.474.94.182.264.387.47.615.616.229.146.481.22.756.22zm8.319.325V49.646h-2.057v-.519c.75-.006 1.35-.15 1.797-.435a2.81 2.81 0 0 0 1.042-1.209h.958v12.525h-1.74zm12.563-11.918l-4.473 12.208h-1.178l4.025-11.022h-6.451l.694-1.511h7.383v.325z"/>
    </g>
</svg>
