<svg xmlns="http://www.w3.org/2000/svg" xmlns:xlink="http://www.w3.org/1999/xlink" width="32" height="32" viewBox="0 0 32 32">
    <defs>
        <rect id="a" width="1200" height="60" rx="4"/>
        <path id="b" d="M0 0h83a4 4 0 0 1 4 4v52a4 4 0 0 1-4 4H0V0z"/>
    </defs>
    <g fill="none" fill-rule="evenodd">
        <g transform="translate(-1141 -16)">
            <use fill="#FFF" xlink:href="#a"/>
            <rect width="1199" height="59" x=".5" y=".5" stroke="#DDE3E9" rx="4"/>
        </g>
        <g transform="translate(-28 -16)">
            <use fill="#FAFAFA" xlink:href="#b"/>
            <path stroke="#DDE3E9" d="M.5.5v59H83a3.5 3.5 0 0 0 3.5-3.5V4A3.5 3.5 0 0 0 83 .5H.5z"/>
        </g>
        <path fill="#FC0" fill-rule="nonzero" d="M15.757 7.002c.09.09.238.09.328 0l.072-.072a6.585 6.585 0 0 1 9.314 0l.233.232a7.292 7.292 0 0 1 .003 10.317l-7.956 7.957a2.59 2.59 0 0 1-3.66 0l-7.956-7.957a7.297 7.297 0 0 1 .003-10.317l.233-.233a6.586 6.586 0 0 1 9.314 0l.072.073zM8.034 8.593l-.233.233a4.944 4.944 0 0 0-.002 6.99l7.956 7.956c.09.09.242.09.332 0l7.956-7.956a4.94 4.94 0 0 0-.003-6.99l-.233-.233a4.232 4.232 0 0 0-5.986 0l-.072.072a2.586 2.586 0 0 1-3.656 0l-.072-.071a4.233 4.233 0 0 0-5.987-.001z"/>
    </g>
</svg>
