<svg xmlns="http://www.w3.org/2000/svg" width="94" height="94" viewBox="0 0 94 94">
    <g fill="none" fill-rule="evenodd" transform="translate(2 2)">
        <path fill="#FC0" d="M18.054 55.27l4.466-.545V36.828H18v-3.032l9.802-1.778v22.707l4.465.545v3.176H18.054V55.27zm33.871-16.246c0 1.32-.35 2.487-1.053 3.503-.701 1.017-1.663 1.81-2.886 2.378 1.404.593 2.511 1.44 3.322 2.541.81 1.102 1.216 2.36 1.216 3.776 0 2.444-.829 4.323-2.486 5.636-1.658 1.313-3.824 1.97-6.499 1.97-2.686 0-4.861-.657-6.525-1.97-1.664-1.313-2.496-3.192-2.496-5.636 0-1.428.402-2.69 1.207-3.785.805-1.095 1.909-1.939 3.313-2.532-1.235-.569-2.197-1.361-2.886-2.378-.69-1.016-1.035-2.184-1.035-3.503 0-2.348.768-4.166 2.305-5.454 1.537-1.29 3.564-1.934 6.08-1.934 2.518 0 4.55.645 6.1 1.934 1.549 1.288 2.323 3.106 2.323 5.454zM47.242 50.86c0-1.186-.348-2.136-1.044-2.85-.695-.714-1.594-1.07-2.695-1.07-1.101 0-1.99.356-2.668 1.07-.678.714-1.017 1.664-1.017 2.85 0 1.21.339 2.163 1.017 2.859.677.696 1.579 1.043 2.704 1.043 1.101 0 1.994-.35 2.678-1.052.683-.702 1.025-1.652 1.025-2.85zm-.617-11.599c0-1.065-.281-1.921-.844-2.568-.563-.648-1.322-.972-2.278-.972-.968 0-1.721.318-2.26.953-.538.636-.808 1.498-.808 2.587 0 1.101.273 1.976.817 2.623.545.647 1.307.971 2.287.971.956 0 1.71-.324 2.26-.971.55-.647.826-1.522.826-2.623zm19.404 4.447h4.23a2.287 2.287 0 1 1 0 4.574h-4.23v5.001a2.514 2.514 0 0 1-5.028 0v-5h-4.284a2.287 2.287 0 0 1 0-4.574h4.284v-4.639a2.514 2.514 0 1 1 5.028 0v4.638z"/>
        <circle cx="45" cy="45" r="45" stroke="#FC0" stroke-width="3"/>
    </g>
</svg>
