<svg xmlns="http://www.w3.org/2000/svg" width="40" height="40" viewBox="0 0 40 40">
    <g fill="none" fill-rule="nonzero">
        <path fill="#4F719B" d="M40 34.444A5.555 5.555 0 0 1 34.444 40H5.556A5.555 5.555 0 0 1 0 34.444V5.556A5.555 5.555 0 0 1 5.556 0h28.888A5.555 5.555 0 0 1 40 5.556v28.888z"/>
        <path fill="#FFF" d="M30.204 23.733c2.313 2.165 2.795 3.224 2.873 3.355.955 1.606-1.059 1.731-1.059 1.731l-3.858.057s-.834.165-1.923-.595c-1.445-.998-3.42-3.602-4.48-3.264-1.076.343-.733 3.073-.733 3.073s.009.334-.234.604c-.27.282-.79.173-.79.173h-1.111s-4.119.018-7.478-3.515c-3.66-3.85-6.72-11.05-6.72-11.05s-.186-.457.014-.7c.23-.273.85-.269.85-.269h4.128s.386.052.664.26c.235.17.36.491.36.491s.5 1.341 1.385 2.886c1.723 3.013 2.526 3.672 3.112 3.347.85-.473.595-4.258.595-4.258s.017-1.376-.43-1.988c-.347-.477-.994-.616-1.28-.655-.235-.026.147-.573.642-.816.742-.365 2.057-.39 3.607-.373 1.206.013 1.662-.005 1.662-.005 1.424.347.942 1.693.942 4.905 0 1.033-.187 2.482.551 2.96.317.212 1.454.243 3.385-3.077.92-1.576 1.645-3.056 1.645-3.056s.157-.334.387-.473c.243-.148.564-.148.564-.148l4.345.022s1.306-.165 1.514.434c.222.625-.534 1.719-2.304 4.11-2.917 3.928-3.243 3.564-.825 5.834z"/>
    </g>
</svg>
