<svg xmlns="http://www.w3.org/2000/svg" width="407" height="125" viewBox="0 0 407 125">
    <defs>
        <filter id="a" width="108.4%" height="130.6%" x="-4.1%" y="-10.2%" filterUnits="objectBoundingBox">
            <feOffset dy="5" in="SourceAlpha" result="shadowOffsetOuter1"/>
            <feGaussianBlur in="shadowOffsetOuter1" result="shadowBlurOuter1" stdDeviation="4.5"/>
            <feColorMatrix in="shadowBlurOuter1" result="shadowMatrixOuter1" values="0 0 0 0 0 0 0 0 0 0 0 0 0 0 0 0 0 0 0.5 0"/>
            <feMerge>
                <feMergeNode in="shadowMatrixOuter1"/>
                <feMergeNode in="SourceGraphic"/>
            </feMerge>
        </filter>
    </defs>
    <g fill="#FFFFFE" fill-rule="evenodd" filter="url(#a)" transform="translate(6 3)">
        <path d="M125.561 102.71c.416 1.109.9 1.993 1.46 2.65.972 1.15 2.18 1.724 3.623 1.724.782 0 1.455-.248 2.022-.748.574-.498.861-1.192.861-2.083 0-.803-.287-1.503-.86-2.098-.376-.375-1.166-.944-2.37-1.698l-2.092-1.313c-.63-.401-1.132-.807-1.508-1.217-.693-.778-1.038-1.638-1.038-2.578 0-1.247.41-2.282 1.23-3.11.823-.825 1.91-1.239 3.264-1.239.559 0 1.228.14 2.007.42.793.275 1.24.41 1.353.41.305 0 .51-.072.623-.216.119-.145.211-.35.275-.614h.503l.536 5.253h-.587c-.397-1.585-1.039-2.688-1.924-3.312-.876-.628-1.746-.942-2.606-.942-.67 0-1.256.2-1.756.603-.495.392-.743.943-.743 1.65 0 .633.191 1.176.574 1.627.384.458.979.935 1.781 1.433l2.153 1.338c1.346.835 2.296 1.602 2.845 2.303.543.704.813 1.542.813 2.504 0 1.293-.485 2.374-1.458 3.241-.963.869-2.2 1.302-3.707 1.302-.757 0-1.55-.145-2.381-.433-.82-.29-1.29-.435-1.408-.435-.287 0-.485.088-.588.265a1.798 1.798 0 0 0-.191.567h-.536l-.731-5.253h.561z"/>
        <path d="M125.561 102.71c.416 1.109.9 1.993 1.46 2.65.972 1.15 2.18 1.724 3.623 1.724.782 0 1.455-.248 2.022-.748.574-.498.861-1.192.861-2.083 0-.803-.287-1.503-.86-2.098-.376-.375-1.166-.944-2.37-1.698l-2.092-1.313c-.63-.401-1.132-.807-1.508-1.217-.693-.778-1.038-1.638-1.038-2.578 0-1.247.41-2.282 1.23-3.11.823-.825 1.91-1.239 3.264-1.239.559 0 1.228.14 2.007.42.793.275 1.24.41 1.353.41.305 0 .51-.072.623-.216.119-.145.211-.35.275-.614h.503l.536 5.253h-.587c-.397-1.585-1.039-2.688-1.924-3.312-.876-.628-1.746-.942-2.606-.942-.67 0-1.256.2-1.756.603-.495.392-.743.943-.743 1.65 0 .633.191 1.176.574 1.627.384.458.979.935 1.781 1.433l2.153 1.338c1.346.835 2.296 1.602 2.845 2.303.543.704.813 1.542.813 2.504 0 1.293-.485 2.374-1.458 3.241-.963.869-2.2 1.302-3.707 1.302-.757 0-1.55-.145-2.381-.433-.82-.29-1.29-.435-1.408-.435-.287 0-.485.088-.588.265a1.798 1.798 0 0 0-.191.567h-.536l-.731-5.253h.561z"/>
        <path d="M125.561 102.71c.416 1.109.9 1.993 1.46 2.65.972 1.15 2.18 1.724 3.623 1.724.782 0 1.455-.248 2.022-.748.574-.498.861-1.192.861-2.083 0-.803-.287-1.503-.86-2.098-.376-.375-1.166-.944-2.37-1.698l-2.092-1.313c-.63-.401-1.132-.807-1.508-1.217-.693-.778-1.038-1.638-1.038-2.578 0-1.247.41-2.282 1.23-3.11.823-.825 1.91-1.239 3.264-1.239.559 0 1.228.14 2.007.42.793.275 1.24.41 1.353.41.305 0 .51-.072.623-.216.119-.145.211-.35.275-.614h.503l.536 5.253h-.587c-.397-1.585-1.039-2.688-1.924-3.312-.876-.628-1.746-.942-2.606-.942-.67 0-1.256.2-1.756.603-.495.392-.743.943-.743 1.65 0 .633.191 1.176.574 1.627.384.458.979.935 1.781 1.433l2.153 1.338c1.346.835 2.296 1.602 2.845 2.303.543.704.813 1.542.813 2.504 0 1.293-.485 2.374-1.458 3.241-.963.869-2.2 1.302-3.707 1.302-.757 0-1.55-.145-2.381-.433-.82-.29-1.29-.435-1.408-.435-.287 0-.485.088-.588.265a1.798 1.798 0 0 0-.191.567h-.536l-.731-5.253h.561zM149.981 91v.467c-.946.065-1.558.228-1.837.491-.28.252-.421.844-.421 1.77v8.044c0 1.318.174 2.347.528 3.083.656 1.344 1.903 2.015 3.738 2.015 2.008 0 3.357-.688 4.046-2.064.385-.77.578-1.959.578-3.561v-6.547c0-1.368-.162-2.224-.48-2.567-.323-.353-.93-.574-1.827-.664V91H160v.467c-.954.106-1.578.344-1.874.712-.288.362-.432 1.201-.432 2.519v6.547c0 1.735-.261 3.09-.784 4.065-.956 1.791-2.786 2.69-5.477 2.69-2.656 0-4.47-.884-5.43-2.653-.518-.949-.78-2.204-.78-3.758v-7.861c0-.919-.14-1.506-.42-1.757-.272-.264-.873-.43-1.803-.504V91h6.981z"/>
        <path d="M149.981 91v.467c-.946.065-1.558.228-1.837.491-.28.252-.421.844-.421 1.77v8.044c0 1.318.174 2.347.528 3.083.656 1.344 1.903 2.015 3.738 2.015 2.008 0 3.357-.688 4.046-2.064.385-.77.578-1.959.578-3.561v-6.547c0-1.368-.162-2.224-.48-2.567-.323-.353-.93-.574-1.827-.664V91H160v.467c-.954.106-1.578.344-1.874.712-.288.362-.432 1.201-.432 2.519v6.547c0 1.735-.261 3.09-.784 4.065-.956 1.791-2.786 2.69-5.477 2.69-2.656 0-4.47-.884-5.43-2.653-.518-.949-.78-2.204-.78-3.758v-7.861c0-.919-.14-1.506-.42-1.757-.272-.264-.873-.43-1.803-.504V91h6.981z"/>
        <path d="M149.981 91v.467c-.946.065-1.558.228-1.837.491-.28.252-.421.844-.421 1.77v8.044c0 1.318.174 2.347.528 3.083.656 1.344 1.903 2.015 3.738 2.015 2.008 0 3.357-.688 4.046-2.064.385-.77.578-1.959.578-3.561v-6.547c0-1.368-.162-2.224-.48-2.567-.323-.353-.93-.574-1.827-.664V91H160v.467c-.954.106-1.578.344-1.874.712-.288.362-.432 1.201-.432 2.519v6.547c0 1.735-.261 3.09-.784 4.065-.956 1.791-2.786 2.69-5.477 2.69-2.656 0-4.47-.884-5.43-2.653-.518-.949-.78-2.204-.78-3.758v-7.861c0-.919-.14-1.506-.42-1.757-.272-.264-.873-.43-1.803-.504V91h6.981zM167 107.248c1.01-.108 1.656-.342 1.944-.703.286-.37.429-1.22.429-2.552v-11.13l-.334-.409c-.358-.436-.666-.702-.918-.803-.248-.105-.62-.167-1.121-.182V91h4.186l9.416 12.157V94.71c0-1.39-.2-2.294-.598-2.712-.261-.273-.843-.45-1.74-.53V91H184v.469c-.93.1-1.55.333-1.861.7-.31.373-.463 1.22-.463 2.542V108h-.42l-10.808-13.844v9.837c0 1.38.193 2.28.584 2.7.253.27.822.456 1.706.555v.456H167v-.456z"/>
        <path d="M167 107.248c1.01-.108 1.656-.342 1.944-.703.286-.37.429-1.22.429-2.552v-11.13l-.334-.409c-.358-.436-.666-.702-.918-.803-.248-.105-.62-.167-1.121-.182V91h4.186l9.416 12.157V94.71c0-1.39-.2-2.294-.598-2.712-.261-.273-.843-.45-1.74-.53V91H184v.469c-.93.1-1.55.333-1.861.7-.31.373-.463 1.22-.463 2.542V108h-.42l-10.808-13.844v9.837c0 1.38.193 2.28.584 2.7.253.27.822.456 1.706.555v.456H167v-.456z"/>
        <path d="M167 107.248c1.01-.108 1.656-.342 1.944-.703.286-.37.429-1.22.429-2.552v-11.13l-.334-.409c-.358-.436-.666-.702-.918-.803-.248-.105-.62-.167-1.121-.182V91h4.186l9.416 12.157V94.71c0-1.39-.2-2.294-.598-2.712-.261-.273-.843-.45-1.74-.53V91H184v.469c-.93.1-1.55.333-1.861.7-.31.373-.463 1.22-.463 2.542V108h-.42l-10.808-13.844v9.837c0 1.38.193 2.28.584 2.7.253.27.822.456 1.706.555v.456H167v-.456zM202.518 91.397c.937.265 1.474.398 1.61.398.36 0 .613-.069.76-.205.155-.137.284-.333.39-.59h.55l.194 5.203h-.572c-.512-1.2-1.042-2.093-1.59-2.681-.984-1.03-2.269-1.546-3.847-1.546-1.602 0-3.016.604-4.235 1.81-1.216 1.202-1.822 3.18-1.822 5.942 0 2.276.606 4.056 1.822 5.336 1.21 1.277 2.71 1.92 4.493 1.92.301 0 .653-.03 1.062-.085a6.412 6.412 0 0 0 1.158-.265c.597-.194.967-.359 1.113-.495.147-.145.22-.356.22-.629v-3.946c0-.952-.14-1.543-.415-1.777-.268-.232-.861-.377-1.783-.434v-.459H208v.46c-.615.04-1.028.14-1.232.3-.34.258-.512.79-.512 1.595v4.866c0 .29-.72.676-2.163 1.158-1.433.483-2.813.727-4.142.727-2.443 0-4.501-.705-6.18-2.114-1.846-1.553-2.771-3.64-2.771-6.255 0-2.301.735-4.274 2.21-5.917 1.622-1.81 3.772-2.714 6.448-2.714.97 0 1.923.131 2.86.397"/>
        <path d="M202.518 91.397c.937.265 1.474.398 1.61.398.36 0 .613-.069.76-.205.155-.137.284-.333.39-.59h.55l.194 5.203h-.572c-.512-1.2-1.042-2.093-1.59-2.681-.984-1.03-2.269-1.546-3.847-1.546-1.602 0-3.016.604-4.235 1.81-1.216 1.202-1.822 3.18-1.822 5.942 0 2.276.606 4.056 1.822 5.336 1.21 1.277 2.71 1.92 4.493 1.92.301 0 .653-.03 1.062-.085a6.412 6.412 0 0 0 1.158-.265c.597-.194.967-.359 1.113-.495.147-.145.22-.356.22-.629v-3.946c0-.952-.14-1.543-.415-1.777-.268-.232-.861-.377-1.783-.434v-.459H208v.46c-.615.04-1.028.14-1.232.3-.34.258-.512.79-.512 1.595v4.866c0 .29-.72.676-2.163 1.158-1.433.483-2.813.727-4.142.727-2.443 0-4.501-.705-6.18-2.114-1.846-1.553-2.771-3.64-2.771-6.255 0-2.301.735-4.274 2.21-5.917 1.622-1.81 3.772-2.714 6.448-2.714.97 0 1.923.131 2.86.397"/>
        <path d="M202.518 91.397c.937.265 1.474.398 1.61.398.36 0 .613-.069.76-.205.155-.137.284-.333.39-.59h.55l.194 5.203h-.572c-.512-1.2-1.042-2.093-1.59-2.681-.984-1.03-2.269-1.546-3.847-1.546-1.602 0-3.016.604-4.235 1.81-1.216 1.202-1.822 3.18-1.822 5.942 0 2.276.606 4.056 1.822 5.336 1.21 1.277 2.71 1.92 4.493 1.92.301 0 .653-.03 1.062-.085a6.412 6.412 0 0 0 1.158-.265c.597-.194.967-.359 1.113-.495.147-.145.22-.356.22-.629v-3.946c0-.952-.14-1.543-.415-1.777-.268-.232-.861-.377-1.783-.434v-.459H208v.46c-.615.04-1.028.14-1.232.3-.34.258-.512.79-.512 1.595v4.866c0 .29-.72.676-2.163 1.158-1.433.483-2.813.727-4.142.727-2.443 0-4.501-.705-6.18-2.114-1.846-1.553-2.771-3.64-2.771-6.255 0-2.301.735-4.274 2.21-5.917 1.622-1.81 3.772-2.714 6.448-2.714.97 0 1.923.131 2.86.397M223.62 101.516l-2.849-6.953-2.81 6.953h5.658zM213 108v-.455c.63-.075 1.103-.322 1.416-.74.322-.42.863-1.558 1.634-3.417L221.18 91h.482l6.126 14.312c.407.954.733 1.545.973 1.776.247.222.658.372 1.238.457V108h-6.26v-.455c.721-.068 1.186-.146 1.394-.235.205-.099.31-.334.311-.704 0-.122-.04-.34-.12-.652a7.102 7.102 0 0 0-.336-.987l-1.021-2.428h-6.439c-.642 1.651-1.026 2.661-1.154 3.032-.122.36-.18.65-.18.861 0 .43.167.724.505.89.21.1.6.173 1.176.223V108H213z"/>
        <path d="M223.62 101.516l-2.849-6.953-2.81 6.953h5.658zM213 108v-.455c.63-.075 1.103-.322 1.416-.74.322-.42.863-1.558 1.634-3.417L221.18 91h.482l6.126 14.312c.407.954.733 1.545.973 1.776.247.222.658.372 1.238.457V108h-6.26v-.455c.721-.068 1.186-.146 1.394-.235.205-.099.31-.334.311-.704 0-.122-.04-.34-.12-.652a7.102 7.102 0 0 0-.336-.987l-1.021-2.428h-6.439c-.642 1.651-1.026 2.661-1.154 3.032-.122.36-.18.65-.18.861 0 .43.167.724.505.89.21.1.6.173 1.176.223V108H213z"/>
        <path d="M223.62 101.516l-2.849-6.953-2.81 6.953h5.658zM213 108v-.455c.63-.075 1.103-.322 1.416-.74.322-.42.863-1.558 1.634-3.417L221.18 91h.482l6.126 14.312c.407.954.733 1.545.973 1.776.247.222.658.372 1.238.457V108h-6.26v-.455c.721-.068 1.186-.146 1.394-.235.205-.099.31-.334.311-.704 0-.122-.04-.34-.12-.652a7.102 7.102 0 0 0-.336-.987l-1.021-2.428h-6.439c-.642 1.651-1.026 2.661-1.154 3.032-.122.36-.18.65-.18.861 0 .43.167.724.505.89.21.1.6.173 1.176.223V108H213zM235.14 91h13.73l.13 4.366h-.58c-.286-1.372-.65-2.262-1.091-2.673-.436-.416-1.357-.626-2.764-.626h-1.354v13.148c0 .993.145 1.614.439 1.857.293.233.933.388 1.923.464V108h-7.084v-.464c1.027-.085 1.668-.264 1.92-.54.256-.275.38-.97.38-2.082V92.067h-1.35c-1.344 0-2.263.205-2.753.615-.485.409-.848 1.304-1.092 2.684H235l.14-4.366z"/>
        <path d="M235.14 91h13.73l.13 4.366h-.58c-.286-1.372-.65-2.262-1.091-2.673-.436-.416-1.357-.626-2.764-.626h-1.354v13.148c0 .993.145 1.614.439 1.857.293.233.933.388 1.923.464V108h-7.084v-.464c1.027-.085 1.668-.264 1.92-.54.256-.275.38-.97.38-2.082V92.067h-1.35c-1.344 0-2.263.205-2.753.615-.485.409-.848 1.304-1.092 2.684H235l.14-4.366z"/>
        <path d="M235.14 91h13.73l.13 4.366h-.58c-.286-1.372-.65-2.262-1.091-2.673-.436-.416-1.357-.626-2.764-.626h-1.354v13.148c0 .993.145 1.614.439 1.857.293.233.933.388 1.923.464V108h-7.084v-.464c1.027-.085 1.668-.264 1.92-.54.256-.275.38-.97.38-2.082V92.067h-1.35c-1.344 0-2.263.205-2.753.615-.485.409-.848 1.304-1.092 2.684H235l.14-4.366zM256 107.536c.88-.1 1.446-.269 1.703-.502.264-.243.397-.85.397-1.819V93.786c0-.913-.13-1.507-.385-1.782-.255-.286-.828-.46-1.715-.527V91h12.694l.08 3.689h-.607c-.2-1.139-.504-1.876-.907-2.209-.406-.333-1.309-.501-2.706-.501h-3.247c-.35 0-.566.063-.65.188-.079.118-.12.342-.12.678v5.733h3.676c1.018 0 1.67-.163 1.949-.491.279-.324.505-.984.679-1.98h.56v5.946h-.56c-.181-.996-.412-1.651-.691-1.97-.28-.326-.926-.49-1.937-.49h-3.675v6.362c0 .511.148.811.443.903.305.092 1.203.138 2.695.138 1.617 0 2.81-.19 3.584-.564.768-.384 1.46-1.31 2.077-2.772H270l-1.087 4.34H256v-.464zM309.33 52.554c.98 2.61 2.128 4.688 3.446 6.238 2.3 2.702 5.153 4.053 8.561 4.053 1.848 0 3.44-.584 4.777-1.756 1.357-1.173 2.036-2.808 2.036-4.906 0-1.888-.68-3.533-2.036-4.93-.884-.89-2.749-2.223-5.594-4l-4.946-3.089c-1.487-.945-2.676-1.897-3.56-2.862-1.64-1.835-2.46-3.856-2.46-6.07 0-2.927.972-5.366 2.913-7.313 1.94-1.945 4.511-2.918 7.715-2.919 1.316 0 2.899.33 4.746.99 1.865.646 2.928.965 3.193.965.715 0 1.207-.17 1.47-.51.281-.338.497-.821.65-1.445h1.185l1.273 12.36h-1.385c-.942-3.722-2.46-6.32-4.55-7.797-2.072-1.473-4.126-2.21-6.159-2.21-1.583 0-2.968.473-4.152 1.416-1.171.929-1.754 2.223-1.754 3.886 0 1.492.453 2.768 1.356 3.827.903 1.075 2.308 2.201 4.21 3.373L325.351 43c3.184 1.968 5.424 3.772 6.725 5.415 1.28 1.665 1.921 3.63 1.924 5.897 0 3.046-1.152 5.587-3.45 7.626C328.27 63.98 325.35 65 321.79 65c-1.788 0-3.662-.339-5.624-1.02-1.94-.68-3.052-1.019-3.334-1.019-.674 0-1.138.207-1.383.622-.227.418-.376.86-.453 1.332h-1.27L308 52.555h1.33zM127 63.935c2.334-.172 3.85-.527 4.543-1.064.693-.556 1.036-1.976 1.037-4.26V32.39c0-2.168-.344-3.56-1.037-4.175-.694-.63-2.209-1.005-4.543-1.122V26h17v1.092c-2.34.117-3.856.492-4.546 1.122-.691.615-1.037 2.007-1.037 4.175V58.61c0 2.284.346 3.704 1.037 4.26.69.537 2.206.892 4.546 1.064V65h-17v-1.065zM249.166 58.545c2.397 2.91 5.34 4.362 8.835 4.362 3.414 0 6.33-1.416 8.749-4.248 2.435-2.849 3.65-7.398 3.65-13.644 0-6.321-1.227-10.889-3.679-13.702-2.454-2.812-5.36-4.217-8.72-4.22-3.474 0-6.42 1.465-8.835 4.39-2.395 2.906-3.596 7.416-3.596 13.532 0 6.096 1.2 10.605 3.596 13.53m-4.331-28.421C248.402 26.707 252.788 25 258 25c5.23 0 9.626 1.717 13.195 5.152 3.87 3.718 5.804 8.672 5.804 14.863 0 6.283-2 11.286-6.003 15.003-3.586 3.322-7.92 4.982-12.996 4.982-5.436 0-9.95-1.842-13.534-5.519-3.645-3.756-5.467-8.577-5.467-14.466 0-6.191 1.945-11.155 5.835-14.891M60 63.935c2.212-.211 3.59-.653 4.131-1.323.544-.671.816-2.234.817-4.692V32.389c0-2.071-.31-3.425-.928-4.059-.6-.653-1.94-1.063-4.02-1.238V26h15.942c3.318 0 6.081.431 8.296 1.294 4.195 1.633 6.295 4.633 6.296 9.01 0 2.936-.94 5.19-2.812 6.762-1.856 1.574-4.388 2.613-7.592 3.11l11.864 14.94c.731.92 1.463 1.59 2.194 2.013.73.423 1.668.69 2.812.806V65h-9.278L74 46.866l-3.204.145v11.6c0 2.187.32 3.578.956 4.175.655.572 2.071.956 4.246 1.15V65H60v-1.065zM79.68 43.5c3.058-1.286 4.583-3.704 4.583-7.255 0-3.414-1.37-5.746-4.105-6.991-1.461-.673-3.4-1.009-5.82-1.009-1.63 0-2.633.125-3.007.376-.357.228-.535.785-.535 1.668v14.535c4.141-.153 7.103-.594 8.883-1.324zM197.5 0l4.708 6.132-2.665 14.922 5.51-14.922H212L197.5 28 183 6.132h6.946l5.51 14.922-2.664-14.922z"/>
        <path d="M214.833 12L197.5 37.388 180.166 12h-8.484l20.507 31.743-18.88 29.076L0 73.07l34.161 5.425L178.04 79l19.46-29.622L216.958 79l143.879-.505L395 73.07l-173.306-.25-18.883-29.077L223.314 12z"/>
    </g>
</svg>
