<svg xmlns="http://www.w3.org/2000/svg" width="110" height="48" viewBox="0 0 110 48">
    <g fill="none" fill-rule="evenodd">
        <path fill="#009D49" d="M12.766 11.764l-.019-.313c1.517-.078 3.064-1.321 3.019-2.077-.066-1.111-1.606-1.338-2.47-2.648C11.452 3.924 13.913 0 17.612 0c4.594 0 6.206 5.144 4.102 8.214-1.72 2.511-5.633 3.38-8.947 3.55"/>
        <path fill="#394236" d="M47.055 27.846l2.803-9.747h8.964l-6.696 22.623-9.135.001-2.52-11.977-2.812 11.977-8.949-.001-5.052-17.067-1.939-5.556h9.258l2.827 9.754 2.89-9.754h7.47zM95.757 31.775L91.593 18.1h-9.242l6.95 22.988H92.9l-1.83 5.97h9.242L107.48 23.7l2.021-5.6h-9.545zM83.936 32.937s-1.067.435-1.551.106c-.423-.286-.401-1.108-.401-1.527V24.88c0-3.321-1.16-5.719-4.42-6.862-2.38-.834-5.906-.867-8.42-.804-3.92 0-8.623.775-8.623.775l2.16 7.172s3.28-.619 5.374-.619c.923 0 4.217-.025 4.685.984.036.079.052.16.052.247v.392h-2.414c-5.169 0-10.65 1.384-10.65 7.484 0 3.76 1.946 7.073 9.115 7.073 2.919 0 5.587-1.686 5.587-1.686 1.385 1.24 4.147 1.605 5.83 1.605 1.723 0 4.538-.462 5.711-.948l-2.035-6.757zm-10.73.665c-1.05.272-2.213.528-3.263.528-.56 0-1.477-.162-1.477-.872 0-1.178 1.579-1.288 2.451-1.309l2.289-.056v1.71zM0 17.975h10.86L9.642 40.723H1.237L0 17.975zm5.43-1.87c-2.676 0-4.845-2.188-4.845-4.886 0-2.697 2.17-4.884 4.845-4.884 2.674 0 4.844 2.187 4.844 4.884 0 2.698-2.169 4.886-4.844 4.886z"/>
    </g>
</svg>
