<svg xmlns="http://www.w3.org/2000/svg" width="230" height="53" viewBox="0 0 230 53">
    <g fill="none" fill-rule="nonzero">
        <path fill="#CF0A2C" d="M7.323 6.5v39.415h38.999V29.503H37.61v-6.508H52.77v29.4H.883V0H52.67l.074 14.58h-6.44V6.5H7.324zm11.601 16.383h1.748l9.706-12.013h8.41L26.532 25.747l13.533 15.807h-8.648L20.746 28.769h-1.84v12.766h-6.707V10.851h6.707l.018 12.032z"/>
        <path fill="#002D73" d="M64.796 22.548h6.697v12.525h.083l4.278-12.525h7.185L77.344 36.58l6.44 15.51H76.6l-5.06-13.185h-.083v13.184H64.76zM85.468 22.548h5.98v4.826h-5.98v-4.826zm0 8.731h5.98v20.81h-5.98v-20.81zM95.238 22.548h5.98v29.54h-5.98zM105.009 22.548h5.98v4.826h-5.98v-4.826zm0 8.731h5.98v20.81h-5.98v-20.81zM113.813 31.27h1.693v-5.43h5.98v5.43h3.468v4.565h-3.468V46.25c-.032.424.067.846.285 1.21.19.253.607.38 1.251.38.264.014.528.014.792 0l.745-.083v4.528l-1.84.102c-.675.044-1.319.065-1.932.065a6.06 6.06 0 0 1-4.002-1.078 4.388 4.388 0 0 1-1.251-3.496V35.882h-1.693l-.028-4.612zM137.503 28.304a6.888 6.888 0 0 1 .57-2.976 4.4 4.4 0 0 1 1.675-1.86 7.407 7.407 0 0 1 2.76-.93 23.553 23.553 0 0 1 3.68-.26c1.203-.01 2.406.072 3.597.242a6.87 6.87 0 0 1 2.76.977 4.702 4.702 0 0 1 1.739 2.101 9.162 9.162 0 0 1 .607 3.654v2.901h-6.44v-3.096a1.676 1.676 0 0 0-.441-1.367 3.045 3.045 0 0 0-1.74-.344 2.008 2.008 0 0 0-1.37.372 1.977 1.977 0 0 0-.405 1.47v17.061a.933.933 0 0 0 .405.837c.441.212.93.302 1.417.26a3.709 3.709 0 0 0 1.693-.26.81.81 0 0 0 .441-.716v-4.649h-2.06v-5.579h8.519v9.503a11.082 11.082 0 0 1-.451 3.468 4.024 4.024 0 0 1-1.472 2.046 6.141 6.141 0 0 1-2.687.976c-1.35.18-2.713.26-4.075.242a23.444 23.444 0 0 1-3.68-.26 7.37 7.37 0 0 1-2.76-.93 4.41 4.41 0 0 1-1.675-1.86 6.888 6.888 0 0 1-.57-2.975l-.037-18.048zM158.58 22.548h5.98v29.54h-5.98zM167.946 37.602a9.558 9.558 0 0 1 .506-3.384c.29-.811.817-1.514 1.509-2.018a5.932 5.932 0 0 1 2.465-.93 23.852 23.852 0 0 1 6.79 0c.877.121 1.716.44 2.456.93a4.291 4.291 0 0 1 1.518 2.018 9.54 9.54 0 0 1 .506 3.384v8.238a9.54 9.54 0 0 1-.506 3.385 4.291 4.291 0 0 1-1.518 2.018c-.74.49-1.579.808-2.456.93a23.588 23.588 0 0 1-6.78 0 5.923 5.923 0 0 1-2.466-.93 4.282 4.282 0 0 1-1.509-2.018 9.568 9.568 0 0 1-.506-3.385l-.009-8.238zm6.22 8.778c-.063.444.08.893.386 1.218a2.98 2.98 0 0 0 2.539 0c.305-.326.447-.774.386-1.218V37.08c.064-.447-.079-.899-.386-1.227a2.97 2.97 0 0 0-2.54 0c-.257.186-.386.595-.386 1.227v9.299zM187.082 22.548h5.97V33.12h.111a4.96 4.96 0 0 1 1.757-1.618 5.607 5.607 0 0 1 2.65-.548 7.286 7.286 0 0 1 1.776.204c.516.127 1 .365 1.416.698.406.345.722.786.92 1.283.248.642.364 1.329.34 2.018v11.585c.018.896-.062 1.79-.238 2.669a4.055 4.055 0 0 1-.81 1.757 3.05 3.05 0 0 1-1.509.93 8.197 8.197 0 0 1-2.318.288c-.461.002-.922-.026-1.38-.083a3.35 3.35 0 0 1-1.113-.344 3.227 3.227 0 0 1-.92-.754 7.676 7.676 0 0 1-.874-1.301h-.083v2.166h-5.686l-.009-29.522zm5.97 23.906c0 .762.46 1.144 1.372 1.144.91 0 1.37-.382 1.37-1.144v-9.55c0-.762-.457-1.143-1.37-1.143-.92 0-1.371.381-1.371 1.144v9.549zM205.73 34.617a3.912 3.912 0 0 1 .387-1.86 2.68 2.68 0 0 1 1.196-1.124 6.103 6.103 0 0 1 2.06-.549c.979-.102 1.961-.149 2.945-.14 1.147-.01 2.293.059 3.431.205a5.7 5.7 0 0 1 2.383.818 3.612 3.612 0 0 1 1.37 1.776 8.78 8.78 0 0 1 .452 3.078V52.08h-5.741v-1.757h-.074a8.852 8.852 0 0 1-.92 1.06c-.27.26-.581.474-.92.632a3.55 3.55 0 0 1-1.067.307c-.482.059-.968.087-1.454.084a6.006 6.006 0 0 1-2.502-.446 3.46 3.46 0 0 1-1.518-1.302 5.552 5.552 0 0 1-.745-2.12c-.142-.945-.21-1.9-.203-2.855a11.798 11.798 0 0 1 .35-3.143 4.572 4.572 0 0 1 1.012-1.934 3.554 3.554 0 0 1 1.638-.994c.71-.201 1.443-.298 2.18-.289a6.77 6.77 0 0 1 2.098.326c.67.223 1.294.57 1.84 1.023v-4.65c0-.678-.516-1.022-1.537-1.022a1.97 1.97 0 0 0-1.067.25.933.933 0 0 0-.386.819v1.144h-5.244l.036-2.595zm5.327 11.465c-.027.486.091.97.34 1.386a1.38 1.38 0 0 0 1.086.362c.617 0 1.012-.149 1.187-.446.183-.322.276-.689.267-1.06V44.65a1.875 1.875 0 0 0-.285-1.162 1.497 1.497 0 0 0-1.169-.307c-.392-.03-.78.093-1.085.344a1.977 1.977 0 0 0-.368 1.404l.027 1.153zM223.735 22.548h5.97v29.54h-5.97z"/>
    </g>
</svg>
