<svg xmlns="http://www.w3.org/2000/svg" xmlns:xlink="http://www.w3.org/1999/xlink" width="205" height="61" viewBox="0 0 205 61">
    <defs>
        <path id="a" d="M.036 60.396V.418H50.913v59.978z"/>
    </defs>
    <g fill="none" fill-rule="evenodd">
        <g>
            <mask id="b" fill="#fff">
                <use xlink:href="#a"/>
            </mask>
            <path fill="#46B8DB" d="M48.057 56.293s-17.848 11.353-30.539-14.8c-4.85-10.003 12.423-7.275 12.423-7.275s3.69 12.875 18.116 22.075" mask="url(#b)"/>
            <path fill="#21407B" d="M27.178 23.665c2.194-.447 5.199-.434 7.862.41 2.39-.303 4.543-.18 6.666.374-6.84-6.047-18.93-4.244-27.488 4.27-4.096 4.066-6.652 8.963-7.552 13.706 3.887-11.362 13.041-17.221 20.512-18.76" mask="url(#b)"/>
            <path fill="#46B8DB" d="M39.48 31.83c2.37-.425 8.046-1.713 10.262-1.78 0 0 1.487-1.518.294-2.668 0 0-2.885-2.391-6.546-3.201-4.799-1.061-10.611.268-10.611.268-3.389.72-6.393 1.624-9.035 2.685C20.822 25.314 11.72 18.547 5.58.418c0 0-15.56 16.787 5.292 35.823-12.806 16.634 9.896 39.22 31.835 10.13-.588.785-5.668 3.623-6.27 4.22C16.519 70.235-3.085 39.488 39.48 31.83" mask="url(#b)"/>
            <path fill="#21407B" d="M40.699 43.234l-.009.017-.008.017c-.396.963-.84 1.871-1.33 2.698-1.223 2.045-2.505 3.767-3.84 5.22C14.973 68.413-1.257 38.918 41.08 31.6c.25-.052.52-.086.77-.133 1.134 3.76.376 8.03-1.15 11.767m9.333-15.853c.217.153 1.164 2.11-1.18 2.326-53.07 5.072-38.24 37.102-19.157 28.259 2.775-.916 5.54-2.642 8.213-5.301 6.469-6.443 9.107-14.933 7.402-21.654 1.568-.187 2.932-.328 3.886-.528 2.246-.469 2.025-2.224.836-3.102" mask="url(#b)"/>
        </g>
        <path fill="#21407B" d="M33.225 26.803c-.303-.085-.631.115-.725.435-.098.332.077.665.38.754.302.09.634-.107.732-.43.09-.333-.08-.67-.387-.759m-3.845 1.006c-.302-.09-.626.102-.72.434-.102.325.068.666.376.755.315.085.634-.106.728-.439.098-.324-.076-.664-.384-.75m-16.607 10.18c-.307-.097-.618.09-.708.419a.581.581 0 0 0 .371.728.575.575 0 0 0 .703-.421.56.56 0 0 0-.366-.725m-2.088 3.15a.481.481 0 0 0-.584.34.482.482 0 0 0 .307.605c.25.077.511-.085.583-.34.073-.265-.055-.533-.306-.606m-1.522 3.388c-.208-.06-.434.064-.503.298-.06.222.06.456.269.516.209.06.43-.077.494-.294a.413.413 0 0 0-.26-.52M49.064 26.695c-2.868.136-4.393.307-6.013-.205-2.062-.647-1.76-.912-1.76-.912.205-.255 2.003-.677 4.735-.57 0 0 .976.43 1.705.852.732.409 1.333.835 1.333.835M25.142 29.43S13.286 21.382 9.174 12.011c0 0-6.115 13.002 8.8 23.367 0 0 7.675-3.35 7.168-5.95M39.558 50.73s-11.455 3.92-18.141-12.867c0 0 .955-1.53 7.406-3.7 0 0 2.23 8.422 10.735 16.566M102.169 32.322c0 .243-.073.515-.103.639-.098.328-1.33.873-2.923.917-1.607-.044-2.826-.589-2.924-.917a2.094 2.094 0 0 1-.11-.64v-1.483c0-.238.063-.52.11-.643.098-.32 1.317-.878 2.924-.912 1.593.034 2.825.593 2.923.912.03.124.103.405.103.643v1.484zm2.253-5.102c-1.606-.946-3.451-1.36-5.254-1.363h-.06c-1.794.004-3.652.417-5.246 1.363-.89.52-1.47 1.193-1.794 1.948v11.553c.324.746.903 1.424 1.794 1.948 4.117 2.43 9.853 1.347 12.145-1.168 0 0 .563-.711-.208-1.615-1.309-1.538-1.773-1.155-1.773-1.155-3.188 3.09-7.624 1.58-7.807.96a2.14 2.14 0 0 1-.11-.653V36.89c.98.268 1.998.405 3 .405v.009c.008 0 .059-.01.059-.01 1.803 0 3.648-.404 5.254-1.346.883-.524 1.462-1.21 1.781-1.951v-4.829c-.319-.755-.898-1.428-1.78-1.948zM132.807 39.013c0 .244-.068.525-.106.644-.107.333-1.326.878-2.924.917-1.602-.039-2.83-.584-2.928-.917-.03-.12-.102-.4-.102-.644v-1.479c0-.238.072-.52.102-.642.099-.316 1.326-.874 2.928-.917 1.598.043 2.817.6 2.924.917.038.123.106.404.106.642v1.48zm-9.896-10.662s-.566.716.2 1.62c1.313 1.534 1.782 1.155 1.782 1.155 1.504-1.458 3.29-1.897 4.778-1.884 1.649.025 3.136.532 3.136 1.176v2.544c-3.623-.963-6.703 0-8.31.95-.886.524-1.462 1.206-1.79 1.948v4.833c.328.741.904 1.427 1.79 1.952 3.034 1.786 7.466 1.819 10.56 0 .886-.525 1.462-1.21 1.79-1.952V29.135c-2.37-4.547-11.28-3.93-13.936-.784zM121.416 26.52a.786.786 0 0 0-.217-.298.544.544 0 0 0-.306-.085h-12.777a.479.479 0 0 0-.294.085.626.626 0 0 0-.227.299c-.059.14-.119.323-.136.557a5.141 5.141 0 0 0-.055.882c0 .363.012.657.055.883.017.243.077.426.136.558.06.14.133.247.227.299.076.06.183.085.294.085h4.312v13.283c0 .103.03.2.095.282.072.085.182.149.344.208.15.056.367.094.635.115.256.03.597.052 1.002.052.41 0 .742-.021 1.001-.052.27-.02.477-.06.64-.115.157-.06.268-.123.337-.208a.459.459 0 0 0 .102-.282V29.785h4.309a.544.544 0 0 0 .306-.085c.08-.052.149-.158.217-.299.056-.132.102-.315.145-.558a7.1 7.1 0 0 0 .043-.883 7.3 7.3 0 0 0-.043-.882 3.049 3.049 0 0 0-.145-.557M90.09 27.078a2.794 2.794 0 0 0-.14-.559c-.064-.14-.128-.238-.226-.298a.487.487 0 0 0-.294-.085h-7.926c-2.92 0-2.958.856-3.154 3.21-.362 4.175-.758 8.757-3.849 11.407a.505.505 0 0 0-.162.273.69.69 0 0 0 .043.4c.051.159.158.35.303.576.145.226.337.495.592.806.256.32.354.383.537.562.192.187.367.32.52.396.158.09.294.115.41.102a.69.69 0 0 0 .336-.157c3.887-2.86 4.653-8.042 5.271-12.33.073-.532.017-1.597 1.02-1.597h2.615v13.284c0 .102.03.2.098.28.069.085.184.154.341.21.158.054.372.093.635.12.26.024.601.046 1.002.046.405 0 .737-.022 1.006-.047a2.92 2.92 0 0 0 .63-.12c.163-.055.273-.124.342-.208a.434.434 0 0 0 .101-.281v-15.19a6.517 6.517 0 0 0-.05-.8M151.843 26.52c-.064-.14-.124-.238-.217-.298a.532.532 0 0 0-.295-.085h-12.784a.49.49 0 0 0-.298.085.679.679 0 0 0-.227.299c-.055.14-.106.323-.136.557a5.743 5.743 0 0 0-.051.882c0 .363.013.657.051.883.03.243.081.426.136.558.065.14.137.247.227.299a.49.49 0 0 0 .298.085h4.317v13.283c0 .103.03.2.09.282.072.085.183.149.34.208.158.056.371.094.64.115.26.03.596.052 1.001.052.409 0 .737-.021 1.001-.052a2.52 2.52 0 0 0 .635-.115c.167-.06.274-.123.337-.208a.435.435 0 0 0 .102-.282V29.785h4.321a.532.532 0 0 0 .295-.085c.093-.052.153-.158.217-.299.064-.132.111-.315.136-.558.034-.226.056-.52.056-.883 0-.353-.022-.647-.056-.882a1.807 1.807 0 0 0-.136-.557M163.242 39.072c0 .247-.068.52-.102.648-.102.324-1.326.882-2.924.916-1.606-.034-2.825-.592-2.923-.916a2.136 2.136 0 0 1-.111-.648v-1.474c0-.247.064-.52.111-.648.098-.32 1.317-.874 2.923-.917 1.598.043 2.822.597 2.924.917.034.128.102.4.102.648v1.474zm2.246-5.101c-1.581-.933-4.624-1.892-8.195-.968v-6.208c0-.108-.03-.21-.094-.29a.678.678 0 0 0-.337-.197 2.287 2.287 0 0 0-.634-.127 10.66 10.66 0 0 0-1.006-.043c-.41 0-.746.017-1.002.043-.269.02-.477.064-.644.127a.692.692 0 0 0-.336.196.52.52 0 0 0-.094.29v13.962c.32.74.904 1.423 1.79 1.943 3.09 1.828 7.526 1.79 10.552 0 .89-.52 1.47-1.203 1.79-1.943v-4.837c-.32-.742-.9-1.42-1.79-1.948zM66.427 29.242c1.487-.012 3.273.426 4.781 1.884 0 0 .461.38 1.774-1.155.77-.903.208-1.62.208-1.62-2.655-3.144-11.29-4.235-13.935 1.889v9.333c2.646 6.124 11.28 5.02 13.935 1.879 0 0 .563-.716-.208-1.615-1.313-1.539-1.774-1.15-1.774-1.15-1.508 1.46-3.294 1.887-4.78 1.87-1.65-.013-3.137-1.355-3.137-1.995v-7.317c0-.647 1.487-1.977 3.136-2.003"/>
        <path fill="#EBA12E" d="M204.855 26.504c-.068-.086-.187-.15-.345-.21a3.068 3.068 0 0 0-.63-.114 8.333 8.333 0 0 0-1.002-.043c-.405 0-.746.009-1.002.043a3.16 3.16 0 0 0-.639.114c-.162.06-.269.124-.34.21a.47.47 0 0 0-.094.29v12.912c-.112.32-1.33.865-2.924.908-1.585-.043-2.804-.588-2.915-.908V26.793a.478.478 0 0 0-.098-.29c-.068-.085-.183-.149-.337-.209a3.236 3.236 0 0 0-.63-.114 8.657 8.657 0 0 0-1.015-.043c-.4 0-.737.009-.993.043a3.267 3.267 0 0 0-.643.114c-.158.06-.264.124-.333.21a.453.453 0 0 0-.102.29v13.935c.32.741.9 1.424 1.782 1.947 1.615.938 3.464 1.348 5.254 1.356h.06a11.57 11.57 0 0 0 3.01-.418v.699c0 .64-3.58 1.96-6.884 1.603-.337-.039-.435.208-.507.6-.081.448-.269 1.22-.393 1.944-.067.366-.072.698.265.78 3.358.404 9.15-.111 11.55-3.568V26.793a.47.47 0 0 0-.095-.29M172.652 40.155a2.676 2.676 0 0 0-.635-.137 8.915 8.915 0 0 0-1.002-.047c-.405 0-.741.017-1.005.047-.269.03-.473.077-.636.137-.161.063-.272.13-.336.225a.448.448 0 0 0-.098.294v2.698c0 .107.026.204.098.294.064.085.175.14.336.2.163.06.367.098.636.123.264.026.6.043 1.005.043.405 0 .747-.017 1.002-.043.264-.025.477-.063.635-.123.158-.06.268-.115.34-.2a.468.468 0 0 0 .099-.294v-2.698a.469.469 0 0 0-.098-.294c-.073-.094-.183-.162-.341-.225M184.842 38.372v.7c0 .247-.064.52-.103.648-.102.323-1.325.881-2.923.915-1.599-.034-2.835-.592-2.924-.915a2.445 2.445 0 0 1-.11-.648v-8.234c0-.239.072-.52.11-.643.09-.32 1.325-.878 2.924-.913 1.598.035 2.821.593 2.923.913.039.123.103.404.103.643v7.534zm2.25-11.152c-3.099-1.828-7.53-1.79-10.557 0-.89.52-1.47 1.193-1.79 1.948v19.535c0 .316.312.55 1.078.614.252.017.585.042.993.042.41 0 .746-.008 1.007-.042.758-.098.958-.35.958-.614v-5.068c2.732.773 5.92.482 8.31-.936.887-.516 1.467-1.203 1.79-1.944V29.168c-.323-.755-.903-1.428-1.79-1.948z"/>
        <path fill="#21407B" d="M61.849 58.037c-.818 0-1.445-.251-1.892-.746-.448-.507-.673-1.223-.673-2.147 0-.933.225-1.662.685-2.183.452-.507 1.1-.77 1.936-.77.272 0 .545.025.818.093.272.047.482.123.639.196l-.26.733a3.43 3.43 0 0 0-.622-.192 3.02 3.02 0 0 0-.588-.072c-1.15 0-1.73.733-1.73 2.186 0 .69.149 1.232.425 1.599.287.37.695.557 1.245.557.464 0 .95-.098 1.445-.298v.758c-.38.196-.857.286-1.428.286M66.768 52.905c-.447 0-.81.146-1.082.444-.264.294-.426.699-.473 1.223h2.944c0-.54-.115-.95-.362-1.231-.238-.29-.583-.436-1.027-.436m.235 5.132c-.836 0-1.492-.252-1.973-.763-.482-.507-.729-1.215-.729-2.114 0-.908.226-1.632.673-2.165.448-.537 1.049-.805 1.811-.805.7 0 1.262.234 1.675.699.413.464.614 1.082.614 1.84v.542h-3.887c.018.657.192 1.16.507 1.504.311.346.763.516 1.334.516.606 0 1.21-.124 1.803-.38v.764a5.32 5.32 0 0 1-.852.285c-.27.051-.588.077-.976.077M74.347 53.022h-1.841v4.914h-.857v-4.914h-1.807v-.724h4.505v.724M76.311 55.37v1.85h1.65c.451 0 .8-.082 1.044-.235.234-.158.354-.392.354-.725 0-.307-.111-.533-.329-.682-.221-.14-.592-.209-1.095-.209h-1.624zm0-.746h1.743c1.436 0 2.16.537 2.16 1.59 0 .562-.187.988-.562 1.277-.379.295-.924.448-1.653.448h-2.544v-5.642h.856v2.327z"/>
        <g fill="#21407B">
            <path d="M88.243 53.022h-1.836v4.914h-.857v-4.914h-1.811v-.724h4.504v.724M88.467 52.298h.913l1.235 3.213c.265.738.431 1.266.504 1.595h.046c.047-.175.133-.478.277-.9.137-.426.614-1.726 1.398-3.908h.912l-2.42 6.423c-.244.638-.52 1.082-.84 1.346-.324.273-.716.405-1.185.405-.255 0-.515-.034-.766-.09v-.686c.187.052.396.06.626.06.592 0 1.005-.324 1.257-.98l.32-.802-2.277-5.676"/>
        </g>
        <path fill="#21407B" d="M97.178 52.914c-.584 0-.997.166-1.257.482-.251.315-.384.83-.392 1.525v.188c0 .793.14 1.36.392 1.7.269.336.69.515 1.27.515.498 0 .874-.196 1.15-.592.278-.396.414-.937.414-1.632 0-.703-.136-1.244-.413-1.62-.277-.374-.661-.566-1.164-.566m.124 5.123a2.37 2.37 0 0 1-1.01-.205 1.849 1.849 0 0 1-.763-.622h-.064c.038.332.064.639.064.941v2.319h-.852v-8.174h.69l.124.771h.038c.217-.311.473-.537.763-.67a2.29 2.29 0 0 1 1.01-.207c.745 0 1.325.25 1.73.767.405.515.61 1.227.61 2.152 0 .924-.205 1.65-.619 2.165-.413.511-.992.763-1.721.763M101.935 52.298v3.576l-.034.937-.017.295 3.06-4.808h1.065v5.634h-.797V54.49l.009-.682.025-.678-3.047 4.803h-1.06v-5.634h.796M110.076 58.037c-.819 0-1.454-.251-1.897-.746-.452-.507-.677-1.223-.677-2.147 0-.933.225-1.662.686-2.183.456-.507 1.095-.77 1.943-.77.277 0 .545.025.818.093.264.047.482.123.635.196l-.268.733a3.12 3.12 0 0 0-.618-.192 2.806 2.806 0 0 0-.585-.072c-1.15 0-1.72.733-1.72 2.186 0 .69.144 1.232.421 1.599.277.37.686.557 1.244.557.465 0 .951-.098 1.445-.298v.758c-.38.196-.852.286-1.427.286M116.647 53.022h-1.841v4.914h-.848v-4.914h-1.816v-.724h4.505v.724M118.566 52.298v3.576l-.04.937-.02.295 3.06-4.808h1.07v5.634h-.793V54.49l.008-.682.03-.678-3.051 4.803h-1.065v-5.634h.8M125.196 52.298v2.054c0 .661.379.989 1.133.989.31 0 .61-.047.89-.137.29-.106.61-.268.973-.502v-2.404h.856v5.634h-.856V55.38c-.363.247-.691.423-1.002.533-.307.094-.66.14-1.044.14-.563 0-1.006-.14-1.33-.434-.31-.298-.469-.699-.469-1.206v-2.114h.849M133.015 52.905c-.456 0-.818.146-1.095.444-.26.294-.422.699-.469 1.223h2.95c0-.54-.12-.95-.367-1.231-.23-.29-.575-.436-1.02-.436m.227 5.132c-.832 0-1.491-.252-1.978-.763-.477-.507-.72-1.215-.72-2.114 0-.908.218-1.632.674-2.165.452-.537 1.048-.805 1.807-.805.703 0 1.261.234 1.675.699.408.464.617 1.082.617 1.84v.542h-3.89c.021.657.187 1.16.503 1.504.319.346.77.516 1.342.516.61 0 1.214-.124 1.799-.38v.764a5.325 5.325 0 0 1-.853.285 5.244 5.244 0 0 1-.976.077M139.025 58.037c-.814 0-1.44-.251-1.892-.746-.448-.507-.673-1.223-.673-2.147 0-.933.23-1.662.681-2.183.456-.507 1.104-.77 1.952-.77.265 0 .537.025.805.093.277.047.49.123.644.196l-.272.733a3.017 3.017 0 0 0-.61-.192 2.996 2.996 0 0 0-.593-.072c-1.15 0-1.72.733-1.72 2.186 0 .69.148 1.232.42 1.599.282.37.69.557 1.241.557.473 0 .96-.098 1.449-.298v.758c-.38.196-.861.286-1.432.286M145.084 52.298h.933l-2.429 2.72 2.634 2.914h-1.002l-2.574-2.855v2.855h-.848v-5.634h.848v2.74l2.438-2.74M148.068 52.298v3.576l-.034.937-.013.295 3.052-4.808h1.07v5.634h-.797V54.49l.012-.682.026-.678-3.052 4.803h-1.06v-5.634h.796M155.314 55.053l-1.96-2.753h.971l1.483 2.152 1.487-2.152h.964l-1.97 2.753 2.072 2.881h-.972l-1.58-2.284-1.59 2.284h-.968l2.063-2.88M163.758 57.333c.529 0 .954-.14 1.253-.439.303-.285.452-.702.452-1.227v-.507l-.856.042c-.674.018-1.164.124-1.471.316-.294.183-.447.473-.447.865 0 .311.093.546.285.707.179.162.448.243.784.243m1.935.602l-.17-.806h-.052c-.277.358-.558.596-.835.72-.281.124-.631.2-1.048.2-.563 0-.997-.157-1.317-.447-.316-.277-.473-.69-.473-1.227 0-1.134.907-1.734 2.732-1.79l.955-.03V54.2c0-.443-.09-.771-.282-.98-.192-.209-.49-.315-.916-.315-.473 0-1.002.145-1.598.435l-.26-.661a4.207 4.207 0 0 1 1.91-.48c.672-.001 1.171.156 1.495.45.319.299.486.78.486 1.432v3.853h-.627M171.483 53.022h-2.545v4.914h-.856v-5.638h3.4v.724M174.745 52.905c-.447 0-.81.146-1.074.444-.272.294-.435.699-.477 1.223h2.949c0-.54-.12-.95-.362-1.231-.239-.29-.589-.436-1.036-.436m.234 5.132c-.83 0-1.49-.252-1.969-.763-.481-.507-.72-1.215-.72-2.114 0-.908.226-1.632.665-2.165.451-.537 1.053-.805 1.807-.805.708 0 1.27.234 1.675.699.418.464.618 1.082.618 1.84v.542h-3.882c.016.657.183 1.16.498 1.504.32.346.771.516 1.339.516.61 0 1.214-.124 1.806-.38v.764a5.406 5.406 0 0 1-.86.285 5.24 5.24 0 0 1-.977.077M179.369 52.298v2.361h3.162v-2.361h.852v5.634h-.852v-2.535h-3.162v2.535h-.848v-5.634h.848M189.003 53.022h-1.833v4.914h-.852v-4.914h-1.815v-.724h4.5v.724M192.375 58.037c-.81 0-1.45-.251-1.897-.746-.444-.507-.67-1.223-.67-2.147 0-.933.226-1.662.687-2.183.451-.507 1.095-.77 1.934-.77.273 0 .555.025.819.093.264.047.486.123.64.196l-.265.733a3.293 3.293 0 0 0-.618-.192 2.96 2.96 0 0 0-.592-.072c-1.143 0-1.722.733-1.722 2.186 0 .69.14 1.232.422 1.599.285.37.694.557 1.244.557.47 0 .947-.098 1.445-.298v.758c-.38.196-.852.286-1.427.286M198.946 53.022h-1.833v4.914h-.856v-4.914h-1.808v-.724h4.497v.724M203.969 56.239c0-.31-.12-.528-.345-.664-.235-.146-.623-.205-1.155-.205h-1.55v1.845h1.57c.985 0 1.48-.32 1.48-.976m-.157-2.45c0-.273-.112-.465-.32-.584-.209-.11-.533-.175-.96-.175h-1.614v1.594h1.448c.529 0 .9-.064 1.125-.191.21-.137.32-.346.32-.644m.832-.077c0 .367-.112.644-.32.836-.209.187-.503.32-.883.379v.043c.474.076.828.208 1.053.426.226.221.332.524.332.899 0 .532-.196.928-.583 1.214-.384.282-.947.422-1.692.422h-2.489v-5.634h2.48c1.406 0 2.102.469 2.102 1.415"/>
    </g>
</svg>
