<svg xmlns="http://www.w3.org/2000/svg" width="150" height="71" viewBox="0 0 150 71">
    <defs>
        <radialGradient id="a" cx="50.041%" cy="49.646%" r="51.636%" fx="50.041%" fy="49.646%" gradientTransform="matrix(.12414 0 0 1 .438 0)">
            <stop offset="0%" stop-color="#231F20"/>
            <stop offset="17.53%" stop-color="#444142" stop-opacity=".825"/>
            <stop offset="56.4%" stop-color="#999798" stop-opacity=".436"/>
            <stop offset="100%" stop-color="#FFF" stop-opacity="0"/>
        </radialGradient>
        <linearGradient id="b" x1="36.061%" x2="76.11%" y1="67.4%" y2="23.359%">
            <stop offset="0%" stop-color="#FF4C00"/>
            <stop offset="100%" stop-color="#FF7200"/>
        </linearGradient>
    </defs>
    <g fill="none" fill-rule="nonzero">
        <g>
            <ellipse cx="37.742" cy="67.78" fill="url(#a)" opacity=".13" rx="23.277" ry="2.89"/>
            <path fill="url(#b)" d="M7.316 42.352h6.9V28.07h6.817v14.365h6.9V37.15l4.738 5.284h14.715v-8.751l6.733 8.75h5.82V21.879h-6.9v8.669l-6.734-8.752h-5.82V42.27l-6.234-6.44c3.076-.825 5.403-3.55 5.403-6.852 0-3.963-3.242-7.1-7.15-7.1H.5v6.192h6.817v14.282zM27.849 28.07h4.49a.92.92 0 0 1 .914.908.92.92 0 0 1-.914.908h-4.49V28.07zM36.911.248C23.527.248 12.054 8.42 7.233 19.979h6.9C18.539 11.89 27.1 6.44 36.91 6.44c14.216 0 25.854 11.476 25.854 25.676 0 14.118-11.555 25.676-25.854 25.676-9.81 0-18.372-5.45-22.778-13.54h-6.9C12.054 55.81 23.527 63.983 36.91 63.983 54.618 63.983 69 49.7 69 32.115S54.618.248 36.91.248z"/>
        </g>
        <g fill="#414042">
            <path d="M85.892 52.759l.831 2.38.167.738.166-.739.582-2.297h1.081l-1.413 4.595h-.915l-.915-2.544-.083-.574h-.083l-.083.574-.915 2.544h-.914L81.9 52.84h1.33l.666 2.297.083.821h.083l.166-.82.748-2.298h.915zM92.793 52.759l.832 2.38.166.738.166-.739.582-2.297h1.081l-1.413 4.595h-.915l-.915-2.544-.083-.574h-.083l-.083.574-.915 2.544H90.3l-1.497-4.595h1.33l.666 2.297.083.821h.083l.166-.82.748-2.298h.915zM99.694 52.759l.832 2.38.166.738.166-.739.582-2.297h1.081l-1.413 4.595h-.915l-.915-2.544-.083-.574h-.083l-.083.574-.915 2.544H97.2l-1.497-4.595h1.33l.666 2.297.083.821h.083l.166-.82.749-2.298h.914zM102.355 56.697c0-.246.083-.41.166-.492.166-.164.333-.164.499-.164.25 0 .416.082.582.164.166.164.166.328.166.492 0 .247-.083.41-.166.493-.166.164-.333.164-.582.164-.25 0-.416-.082-.499-.164-.083-.082-.166-.246-.166-.493zM104.184 52.759h.665v-.82l1.247-.329v1.231h1.164v.985h-1.164v1.723c0 .328 0 .574.083.656.084.164.167.246.333.246h.333c.083 0 .166-.082.332-.082l.25.903c-.167.082-.333.164-.582.164-.25.082-.416.082-.666.082-.415 0-.748-.082-.914-.328a1.81 1.81 0 0 1-.333-1.067v-2.297h-.665v-1.067h-.083zM110.503 53.826c-.166-.082-.333-.082-.499-.082-.25 0-.416.082-.582.164-.166.082-.25.246-.332.41v2.954h-1.248v-4.595h.915l.166.574a.843.843 0 0 1 .416-.492c.166-.082.416-.164.665-.164.166 0 .333 0 .582.082l-.083 1.149zM114.078 57.354v-2.626c0-.41-.083-.656-.166-.82-.083-.164-.333-.246-.582-.246-.25 0-.416.082-.582.164-.166.164-.25.328-.333.492v2.954h-1.247v-4.595h.998l.166.574c.167-.164.333-.328.582-.492.25-.164.5-.246.915-.246.25 0 .416 0 .582.082.166.082.332.164.416.328.083.164.249.328.249.574.083.247.083.575.083.903v2.872h-1.08v.082zM116.24 54.154h2.328v1.067h-2.328zM122.476 57.354v-2.626c0-.41-.083-.656-.166-.82-.083-.164-.333-.246-.582-.246-.25 0-.416.082-.582.164-.167.164-.25.328-.333.492v2.954h-1.247v-4.595h.998l.166.656c.166-.164.332-.328.582-.492.25-.164.499-.246.915-.246.249 0 .415 0 .582.082.166.082.332.164.415.328.083.164.25.328.25.574.083.247.083.575.083.903v2.872h-1.081zM128.38 56.944c-.167.164-.416.246-.749.41-.333.082-.665.164-.998.164-.748 0-1.33-.246-1.663-.656-.332-.41-.499-.985-.499-1.806 0-.82.167-1.394.582-1.805.416-.41.915-.574 1.663-.574.25 0 .5 0 .666.082.249.082.415.164.582.328.166.164.332.328.415.575.083.246.167.574.167.902v.41c0 .164 0 .329-.084.493h-2.827c0 .41.084.656.333.902.166.164.499.328.915.328.25 0 .499 0 .665-.082l.499-.246.332.575zm-1.747-3.365c-.332 0-.582.083-.665.247-.166.164-.25.41-.25.738h1.747c0-.328 0-.574-.167-.738-.166-.164-.332-.247-.665-.247zM132.703 52.759l.831 2.38.167.738.166-.739.582-2.297h1.08l-1.413 4.595h-.914l-.915-2.544-.083-.574h-.083l-.083.574-.915 2.544h-.915l-1.496-4.595h1.33l.665 2.297.083.821h.084l.166-.82.748-2.298h.915zM137.941 56.041c0-.082-.083-.246-.166-.328a.64.64 0 0 0-.416-.164c-.166-.082-.333-.164-.499-.164-.166 0-.332-.164-.499-.247-.166-.082-.25-.246-.415-.41a1.53 1.53 0 0 1-.167-.656c0-.493.167-.82.416-1.067.25-.246.665-.328 1.164-.328.333 0 .665 0 .998.082.25.082.499.164.665.246l-.25.903c-.166-.082-.332-.082-.498-.164-.25-.082-.416-.082-.666-.082-.332 0-.498.164-.498.41 0 .082.083.164.166.246a.64.64 0 0 0 .416.164c.166.082.332.082.498.164l.5.246c.166.082.249.246.415.41.083.165.166.41.166.657 0 .492-.166.82-.415 1.067-.333.246-.749.41-1.33.41-.333 0-.666 0-.915-.164-.25-.082-.5-.164-.665-.328l.332-.903c.166.082.333.164.582.246.25.082.499.082.748.082.167 0 .333 0 .416-.082-.083 0-.083-.082-.083-.246zM139.853 56.697c0-.246.083-.41.167-.492.166-.164.332-.164.498-.164.25 0 .416.082.583.164.166.164.166.328.166.492 0 .247-.083.41-.166.493-.167.164-.333.164-.583.164-.249 0-.415-.082-.498-.164-.167-.082-.167-.246-.167-.493zM145.008 53.826c-.166-.082-.332-.082-.499-.082-.249 0-.415.082-.582.164-.166.082-.249.246-.332.41v2.954h-1.247v-4.595h.914l.167.574a.843.843 0 0 1 .415-.492c.167-.082.416-.164.665-.164.167 0 .333 0 .582.082l-.083 1.149zM146.838 52.759v2.626c0 .41.083.656.166.82.083.164.25.246.499.246.25 0 .415-.082.582-.164.166-.164.25-.328.332-.492V52.84h1.247v3.938c0 .247.084.493.084.657h-.915l-.25-.657a1.93 1.93 0 0 1-.581.575c-.25.164-.582.246-.915.246-.25 0-.416 0-.665-.082-.166-.082-.333-.164-.5-.328-.082-.164-.248-.328-.248-.575-.084-.246-.084-.574-.084-.902V52.84h1.248v-.082zM75 .246h1V63.59h-1z"/>
            <g>
                <path d="M86.141 17.395V8.45h-3.658V6.4h10.892v2.051h-3.741v8.944zM115.409 17.395l-.582-2.133h-4.49l-.665 2.133h-3.326l3.99-10.995h4.823l3.742 10.995h-3.492zm-4.49-3.939h3.326l-1.663-5.087-1.663 5.087zM121.478 17.395L117.654 6.4h3.741l2.411 8.205 2.578-8.205h3.741l-3.824 10.995zM131.373 17.395V6.4h8.896v1.97h-5.404v2.379h4.49v1.887h-4.49v2.708h5.653v2.05zM142.348 17.395V6.4h3.492v8.944h3.824v2.05zM101.44 17.395l-2.494-4.185h-.499v4.185h-3.492V6.4h5.737c.748 0 1.413.082 1.995.328.5.164.915.41 1.248.739.332.328.498.656.665.984.166.41.166.739.166 1.149 0 3.282-2.66 3.446-2.66 3.446l2.91 4.43h-3.576v-.081zm-3.076-6.072h1.247c.416 0 .831-.164 1.08-.41.25-.246.417-.657.417-1.067 0-.41-.167-.738-.416-.984-.25-.247-.665-.41-1.081-.41h-1.33v2.871h.083z"/>
            </g>
            <g>
                <path d="M97.2 30.77c-.832 0-1.497-.083-2.079-.247-.499-.164-.998-.41-1.33-.656-.333-.329-.582-.657-.665-1.067-.167-.41-.25-.903-.25-1.477v-5.58h2.744v5.744c0 .575.166.985.416 1.23.25.247.665.411 1.164.411.166 0 .332 0 .499-.082l.499-.246c.166-.164.249-.328.332-.492.083-.246.083-.493.083-.739v-5.743h2.744v5.58c0 1.148-.333 1.968-.998 2.625-.582.41-1.663.738-3.16.738zM107.177 30.77h-.831c-.333 0-.665-.083-.998-.165a27.361 27.361 0 0 0-1.164-.246l-.748-.246.499-1.723.997.246c.416.082.832.164 1.164.164.333 0 .666.082.915.082h.582c.416 0 .665-.082.831-.164.167-.164.333-.328.333-.574 0-.657-.831-.82-1.08-.903-.583-.164-1.082-.246-1.58-.41a9.753 9.753 0 0 1-1.248-.493 1.62 1.62 0 0 1-.748-.738c-.166-.328-.25-.656-.25-1.23 0-.411.084-.74.167-1.15.083-.328.332-.656.665-.902a4.426 4.426 0 0 1 1.247-.656c.499-.165 1.164-.247 1.996-.247.582 0 1.164.082 1.829.164.499.083.997.247 1.496.493l-.582 1.64c-.166-.081-.332-.081-.499-.081-.249-.082-.582-.082-.831-.164-.25 0-.582-.082-.831-.082h-.666c-.332 0-.498.082-.665.164-.083.082-.25.246-.25.574 0 .328.25.492.666.656.333.083.665.165 1.164.329.166.082.416.082.665.164l.748.246c.25.082.5.246.666.328.166.164.415.328.582.492.166.165.332.41.415.739.084.246.167.574.167.985 0 .41-.083.738-.25 1.066-.166.328-.416.575-.665.82-.333.247-.831.411-1.413.575a12.24 12.24 0 0 1-2.495.246zM117.072 30.77h-.832c-.333 0-.665-.083-.998-.165a27.361 27.361 0 0 0-1.164-.246l-.748-.246.499-1.723.998.246c.415.082.831.164 1.164.164.332 0 .665.082.914.082h.582c.416 0 .665-.082.832-.164.166-.164.332-.328.332-.574 0-.657-.831-.82-1.08-.903-.583-.164-1.081-.246-1.58-.41a9.753 9.753 0 0 1-1.248-.493 1.62 1.62 0 0 1-.748-.738c-.166-.328-.25-.656-.25-1.23 0-.411.084-.74.167-1.15.166-.328.333-.656.665-.902a4.426 4.426 0 0 1 1.247-.656c.5-.165 1.164-.247 1.996-.247.582 0 1.164.082 1.829.164.499.083.998.247 1.497.493l-.582 1.64c-.167-.081-.333-.081-.5-.081-.249-.082-.581-.082-.83-.164-.25 0-.583-.082-.832-.082h-.665c-.333 0-.582.082-.665.164-.084.082-.25.246-.25.574 0 .328.25.492.665.656.333.083.665.165 1.164.329.167.082.416.082.665.164l.749.246c.25.082.499.246.665.328.25.164.416.328.582.492.166.165.333.41.416.739.083.246.166.574.166.985 0 .41-.083.738-.25 1.066-.166.328-.415.575-.665.82-.332.247-.831.411-1.413.575a12.24 12.24 0 0 1-2.494.246zM123.723 21.743h2.827v8.862h-2.827zM135.696 30.605l-.499-1.723h-3.658l-.582 1.723h-2.66l3.242-8.861h3.908l2.993 8.861h-2.744zm-3.658-3.2h2.66l-1.33-4.102-1.33 4.102zM146.671 30.605l-3.658-5.58v5.58h-2.744v-8.861h3.076l3.659 5.743v-5.743h2.66v8.861zM87.721 30.605l-1.995-3.364h-.416v3.364h-2.827v-8.861h4.573c.665 0 1.164.082 1.58.246.416.164.748.328.998.574.249.246.415.492.498.82.084.329.167.657.167.903 0 2.626-2.162 2.79-2.162 2.79l2.411 3.528h-2.827zm-2.494-4.923h.998c.332 0 .665-.082.914-.328.25-.246.333-.492.333-.903 0-.328-.083-.574-.333-.82s-.499-.328-.914-.328h-1.081v2.38h.083z"/>
            </g>
            <g>
                <path d="M91.63 47.754l-5.156-8.041v8.04h-3.99v-12.8h4.406l5.155 7.878v-7.877h3.99v12.8zM125.802 47.754l-1.913-8.862-1.829 8.862h-5.903l-3.16-12.882h4.99l1.828 9.107 2.079-9.107h4.157l2.079 9.025 1.829-9.025h4.822l-2.993 12.882zM142.181 48.082c-3.076 0-5.57-.738-6.485-1.067l.748-2.707c.749.246 2.412.738 4.74.82h.499c2.161 0 2.494-.902 2.494-1.313.083-.738-.499-1.394-1.414-1.559-.249-.082-.665-.082-1.08-.164-2.661-.41-5.571-.984-5.571-3.282 0-3.692 3.492-4.43 6.402-4.43 3.076 0 5.238.738 5.986 1.066l-.748 2.544c-.831-.328-2.577-.82-4.74-.82-1.662 0-2.244.656-2.327 1.312-.083.739.582 1.395 1.496 1.477.167 0 .416.082.666.082 1.995.164 6.651.656 6.651 3.692.166 3.036-2.162 4.35-7.317 4.35zM111.002 37.826v-2.872H98.946v12.8h12.056v-2.872h-8.065v-2.38h6.651v-2.379h-6.651v-2.297z"/>
            </g>
        </g>
    </g>
</svg>
