<svg xmlns="http://www.w3.org/2000/svg" xmlns:xlink="http://www.w3.org/1999/xlink" width="244" height="28" viewBox="0 0 244 28">
    <defs>
        <path id="a" d="M.015 26.968V.094h15.863v26.874z"/>
    </defs>
    <g fill="none" fill-rule="evenodd">
        <g transform="translate(0 1)">
            <mask id="b" fill="#fff">
                <use xlink:href="#a"/>
            </mask>
            <path fill="#A6BB3A" d="M15.878 4.404h-5.536v22.564H5.571V4.404H0V.094h15.878v4.31" mask="url(#b)"/>
        </g>
        <path fill="#A6BB3A" d="M24.942 14.045c3.58 0 4.58-1.228 4.58-3.786v-.914c0-2.558-.678-3.891-4.507-3.891h-2.112v8.59h2.04zM30.24 28l-5.475-9.501H22.94V28H18V1h6.942c6.657 0 9.77 2.387 9.77 8.1v1.404c0 3.997-1.43 6.17-4.76 7.224L36 28h-5.76zM48.672 18.485L46.501 8.48l-2.172 10.006h4.343zM56 28h-4.818l-1.323-4.775h-6.685L41.818 28H37l7.227-27h4.648L56 28zM74 1l-7.035 27H62.07L55 1h4.792l2.278 8.24 2.448 12.624 2.413-12.695L69.208 1H74M93.51 1v4.203H82.833v6.935h9.102v4.342h-9.102v7.109H94V28H78V1h15.51M113 28H97V1h5.102v22.583H113V28"/>
        <path fill="#682866" d="M128.662 6.168c-.035-3.33-2.127-4.572-5.232-4.572-3.628 0-5.652 1.169-5.652 5.633 0 4.964 2.896 4.892 7.011 5.389 3.943.53 6.211 3.154 6.211 7.16 0 6.733-3.176 8.222-7.85 8.222-4.743-.035-7.15-2.09-7.15-6.485h1.674c0 3.368 1.883 4.785 5.512 4.785 4.465-.038 6.034-1.844 6.034-6.557 0-4.857-3.348-5.46-7.36-5.85-2.791-.283-5.79-1.524-5.79-6.664 0-5.137 2.51-7.194 7.394-7.229 3.768 0 6.664 1.31 6.873 6.168h-1.675M145 2.643h-5.627V28h-1.747V2.643H132V1h13v1.643M154.017 3.552L150.01 19.71h7.947l-3.903-16.158h-.036zM147.844 28H146l7.024-27h1.95L162 28h-1.88l-1.774-6.644h-8.763L147.844 28zM171.28 16.39c3.648 0 4.559-1.157 4.559-5.457v-2.03c0-4.406-.675-6.12-4.558-6.12h-4.491v13.606h4.49zm1.216 1.608L178 28h-2.094l-5.335-9.967h-3.781V28H165V1h6.28c4.255 0 6.247 1.677 6.247 7.903v2.064c0 4.967-1.62 6.715-5.031 7.031zM191 2.643h-5.627V28h-1.747V2.643H178V1h13v1.643M209 1v18.21c0 5.964-1.154 8.79-7.5 8.79s-7.5-2.826-7.5-8.79V1h1.838v18.21c0 4.57.398 7.22 5.662 7.22s5.66-2.65 5.66-7.22V1H209M219.518 16.842c3.784 0 4.73-1.609 4.73-5.909V8.73c0-4.303-.7-6.052-4.73-6.052h-4.66v14.165h4.66zm-4.66 1.68V28H213V1h6.518C223.933 1 226 2.398 226 8.555v2.341c0 5.878-2.067 7.627-6.482 7.627h-4.66zM241.506 6.168c-.037-3.33-2.269-4.572-5.58-4.572-3.87 0-6.03 1.169-6.03 5.633 0 4.964 3.09 4.892 7.48 5.389 4.205.53 6.624 3.154 6.624 7.16 0 6.733-3.387 8.222-8.373 8.222-5.06-.035-7.627-2.09-7.627-6.485h1.786c0 3.368 2.009 4.785 5.88 4.785 4.762-.038 6.436-1.844 6.436-6.557 0-4.857-3.572-5.46-7.852-5.85-2.976-.283-6.176-1.524-6.176-6.664 0-5.137 2.679-7.194 7.888-7.229 4.019 0 7.108 1.31 7.33 6.168h-1.786"/>
    </g>
</svg>
